<svg enable-background="new 0 0 228 75" height="75" viewBox="0 0 228 75" width="228" xmlns="http://www.w3.org/2000/svg"><g fill="#25a0a0"><path d="m18 44.1h4.4v-14.8h-4.4z"/><path d="m25.9 44.1h11.4v-3h-7v-3h6.1v-2.9h-6.1v-3h7v-2.9h-11.4z"/><path d="m49.3 38.1-3.9-8.8h-5.7v14.8h3.5v-8.9l3.9 8.9h2.9l4.2-9v9h4.4v-14.8h-5.2z"/><path d="m86.5 38.3-5.5-9h-4.8v14.8h3.1v-9.1l5.6 9.1h4.7v-14.8h-3.1z"/><path d="m62 44.1h11.5v-3h-7.1v-3h6.1v-2.9h-6.1v-3h7.1v-2.9h-11.5z"/><path d="m13.3 36.2c-1.3-.6-3.3-1.5-4.5-2.2-1.3-.6-1.3-3.6 6-1.4v-2.8c-1.5-.5-5.7-1.5-8.8.2s-2.4 6 0 7.4c1 .6 2.4 1 4.3 1.8 1.5.7 2.4 3.9-6.1 1.7v2.9c1.7.7 8.2 1.4 10.2-.8 2.1-2.6 1.1-6-1.1-6.8z"/><path d="m101.5 36.2c-1.3-.6-3.2-1.5-4.5-2.2-1.3-.6-1.3-3.6 6-1.4v-2.8c-1.5-.5-5.7-1.5-8.8.2s-2.4 6 0 7.4c1 .6 2.4 1 4.3 1.8 1.5.7 2.4 3.9-6.1 1.7v2.9c1.7.7 8.2 1.4 10.2-.8 2.2-2.6 1.1-6-1.1-6.8z"/></g><path d="m122.5 42.6v-12.7l-1.7-.1v-1.2h10.2v3.8h-1.6l-.2-2.4h-4.9v5.3h4.7v1.5h-4.7v5.8l1.7.1v1.2h-5.2v-1.2z"/><path d="m141.8 42.2c-.5.5-.8.8-1.3 1-.8.6-1.8.9-2.9.9-1.5 0-2.5-.6-3-1.8-.2-.6-.3-1.6-.3-3v-5.3l-1.6-.1v-1.2l3.3-.1v6.8c0 1 .1 1.7.2 2.2.3.8.9 1.2 1.8 1.2 1.2 0 2.3-.7 3.5-2v-6.9l-1.6-.1v-1.2l3.3-.1v10l1.6.1v1.2h-3.1z"/><path d="m147.8 42.6v-8.6l-1.6-.1v-1.2l3.2-.1v1.8c.5-.5.9-.8 1.2-1 .8-.6 1.7-.9 2.9-.9 1.5 0 2.5.6 3 1.8.2.6.3 1.6.3 2.9v5.4l1.6.1v1.2h-5v-1.2l1.6-.1v-5.4c0-1-.1-1.7-.2-2.2-.3-.8-.9-1.2-2-1.2-1.2 0-2.4.7-3.6 2.1v6.7l1.6.1v1.2h-4.7v-1.2z"/><path d="m168.1 43.9v-1.7c-.5.6-.8.9-1 1.2-.6.5-1.4.8-2.3.8-1.4 0-2.4-.6-3.2-1.7-.8-1.2-1.3-2.5-1.3-4.3s.5-3.2 1.4-4.3c.8-.9 1.8-1.4 3-1.4 1.4 0 2.4.6 3.3 1.7v-5.2l-1.6-.1v-1.2l3.3-.1v15l1.6.1v1.2zm-.2-8c-.7-1.4-1.7-2.1-3-2.1-.9 0-1.7.3-2.2 1.2-.6.8-.8 2-.8 3.2 0 1.3.2 2.3.7 3.1.5.9 1.3 1.4 2.3 1.4.8 0 1.5-.3 2.1-.9.2-.3.6-.7.8-1.2z"/><path d="m179.6 43.9-.1-1.3c-.3.5-.7.7-1.2.9-.7.3-1.4.6-2.2.6-1.2 0-2.1-.3-2.7-1-.6-.6-.8-1.4-.8-2.3 0-1.5.6-2.5 1.8-3.1.7-.3 1.8-.6 3.2-.6h1.6v-.3c0-.8-.1-1.4-.3-1.8-.3-.8-1.2-1.2-2.2-1.2-.9 0-1.8.3-2.9.9l-.7-1.2c1.2-.7 2.4-1.2 3.8-1.2 1.7 0 2.9.5 3.5 1.5.3.5.5 1.2.5 2.1v1.4 5.2l1.6.1v1.2zm-.2-5.4c-.3 0-.8 0-1.3 0-1.2 0-2.1.1-2.7.5-.7.5-1 1-1 1.8 0 .6.2 1 .6 1.5.3.3.9.6 1.5.6 1.2 0 2.2-.6 2.9-1.7z"/><path d="m192.9 33v3.1h-1.6l-.2-2.1c-.6-.2-1.2-.2-1.6-.2-1.2 0-2 .3-2.5 1.2-.6.8-.8 1.8-.8 3.2s.3 2.5 1 3.5c.6.8 1.4 1.2 2.5 1.2.9 0 2-.3 2.9-1l.7 1.3c-1 .7-2.2 1-3.6 1-1.6 0-2.9-.5-3.8-1.5s-1.4-2.4-1.4-4.3c0-2 .5-3.5 1.5-4.5.9-.9 2.1-1.4 3.7-1.4 1 0 2 .2 3.2.5z"/><path d="m196.1 42.6v-8.6l-1.6-.1v-1.2l3.3-.1v10l1.6.1v1.2h-5v-1.2zm1-15.1c.5 0 .7.1.9.5.1.2.2.5.2.7s-.1.5-.2.7c-.2.3-.6.5-.9.5-.5 0-.7-.1-.9-.5-.1-.2-.2-.5-.2-.7s.1-.6.2-.7c0-.3.4-.5.9-.5z"/><path d="m206.4 32.5c1.6 0 2.9.6 3.8 1.8.8 1 1.3 2.3 1.3 3.9 0 1.7-.5 3.1-1.4 4.2s-2.2 1.6-3.7 1.6c-1.6 0-3-.6-3.9-1.8-.8-1-1.3-2.4-1.3-4 0-1.7.5-3.1 1.4-4.2 1-1 2.3-1.5 3.8-1.5zm-.1 1.3c-.7 0-1.3.2-1.8.7-1 .8-1.5 2.1-1.5 3.8 0 1.3.2 2.2.8 3 .6.9 1.5 1.4 2.7 1.4 1.3 0 2.1-.6 2.8-1.6.5-.8.7-1.7.7-2.9 0-1.3-.2-2.2-.8-3-.8-.9-1.8-1.4-2.9-1.4zm1.4-6.1h2.2l-3.2 3.2h-1.7z"/><path d="m215 42.6v-8.6l-1.6-.1v-1.2l3.2-.1v1.8c.5-.5.9-.8 1.2-1 .8-.6 1.7-.9 2.9-.9 1.5 0 2.5.6 3 1.8.2.6.3 1.6.3 2.9v5.4l1.6.1v1.2h-5v-1.2l1.6-.1v-5.4c0-1-.1-1.7-.2-2.2-.3-.8-.9-1.2-2-1.2-1.2 0-2.4.7-3.6 2.1v6.7l1.6.1v1.2h-4.9v-1.2z"/><path d="m112 25.1v22.8" fill="none" stroke="#000"/></svg>