<?xml version="1.0" encoding="utf-8"?>
<!-- Generator: Adobe Illustrator 22.0.0, SVG Export Plug-In . SVG Version: 6.00 Build 0)  -->
<svg version="1.1" id="Layer_1" xmlns="http://www.w3.org/2000/svg" xmlns:xlink="http://www.w3.org/1999/xlink" x="0px" y="0px"
	 viewBox="0 0 615.2 206.1" style="enable-background:new 0 0 615.2 206.1;" xml:space="preserve">
<style type="text/css">
	.st0{fill:#0D2D6C;}
	.st1{fill:#CEAC6D;}
</style>
<path class="st0" d="M15.7,19.7v128.5l0,0c1,19.4,23.7,30,43.6,31.4c6.6,0.4,14,0.7,16.5,2c3.8,1.9,4.6,8.2,4.6,8.2s0.9-6.3,4.7-8.2
	c2.5-1.2,9.9-1.5,16.5-2c20.3-1.4,43.5-12.4,43.5-32.6V19.7H15.7z"/>
<path class="st1" d="M100.1,127.5c-7.2,8.6-14.3,10.8-16.4,12.1v26.8l-7-10v-16.8c-2.1-1.2-9.4-3.1-16.3-12.1
	c-13.4-14.8-22.1-15.3-22.1-15.3c16.8-2.4,29.7,10.4,38.4,22l0.1-6.7l0-6.7h-1.9l-1.3-4.1h3.2v-6.3c4-1,24.3-6.6,24.4-30
	c0-6.3-3.5-25-20.7-24.9C70.4,55.5,59.6,62,59.5,80.4c-0.1,12.8,7.2,24.1,20.9,26.6c-8.8,2.9-13.9,0.8-16.7-0.6
	c-4.3-2.2-7.8-5.5-10.3-9.8c-2.5-4.3-3.9-9.2-3.9-15.6c0-5,0.7-9.3,2.2-12.9c1.5-3.7,3.7-6.8,6.4-9.4c2.8-2.6,5.8-4.4,9.1-5.5
	c2.1-0.7,4.3-1.4,6.6-1.8c-1.6-3.6-7.5-7.3-10.8-9.5c9.5-1,13.3,3.3,13.3,3.3c0.3-4.9,3.8-13.3,4-14l0-0.1l0,0.1
	c0.3,0.6,3.5,9.1,3.8,14c0,0,3.8-4.3,13.3-3.3c-3.3,2.2-8.9,6-10.6,9.5c2.6,0.3,4.4,1,6.7,2c2.9,1.2,5.6,2.6,7.8,4.6
	c2.3,2,4.1,4,5.2,6.1c1.2,2.1,2.1,4.4,2.7,6.9c0.6,2.5,1.3,7,1.3,9.5c0,5.1-0.4,8.2-2.2,12.6c-1.3,3.2-3.2,6.1-5.7,8.6
	c-2.5,2.5-5.4,4.4-8.5,5.8c-4.3,1.9-5.1,2.2-10.6,3v6.3h1.9l1.3,4.1h-3.2l0,6.9l0,0v6.5c8.7-11.6,21.6-24.4,38.4-22
	C122.1,112.2,113.4,112.7,100.1,127.5 M80.5,71.6c2.1,0,3.8,1.7,3.8,3.9c0,2.1-1.7,3.9-3.8,3.9c-2.1,0-3.7-1.7-3.7-3.9
	C76.7,73.3,78.4,71.6,80.5,71.6 M76.7,64.3c0-2.1,1.7-3.9,3.7-3.9c2.1,0,3.8,1.7,3.8,3.9c0,2.1-1.7,3.9-3.8,3.9
	C78.4,68.2,76.7,66.4,76.7,64.3 M80.5,83c2.1,0,3.8,1.7,3.8,3.9c0,2.1-1.7,3.9-3.8,3.9c-2.1,0-3.7-1.7-3.7-3.9
	C76.7,84.7,78.4,83,80.5,83 M80.5,94.1c2.1,0,3.8,1.7,3.8,3.9c0,2.1-1.7,3.9-3.8,3.9c-2.1,0-3.7-1.7-3.7-3.9
	C76.7,95.9,78.4,94.1,80.5,94.1 M91,74c-2.1,0-3.7-1.7-3.7-3.9c0-2.1,1.7-3.9,3.7-3.9c2.1,0,3.7,1.7,3.7,3.9C94.7,72.3,93,74,91,74
	 M94.7,92c0,2.1-1.7,3.9-3.8,3.9c-2.1,0-3.7-1.7-3.7-3.9c0-2.1,1.7-3.9,3.7-3.9C93,88.1,94.7,89.9,94.7,92 M89.1,77.2
	c2.1,0,3.8,1.7,3.8,3.9c0,2.1-1.7,3.9-3.8,3.9c-2.1,0-3.8-1.7-3.8-3.9C85.4,79,87.1,77.2,89.1,77.2 M70,88.1c2.1,0,3.8,1.7,3.8,3.9
	c0,2.1-1.7,3.9-3.8,3.9c-2.1,0-3.8-1.7-3.8-3.9C66.3,89.9,68,88.1,70,88.1 M66.3,70.2c0-2.1,1.7-3.9,3.7-3.9c2.1,0,3.8,1.7,3.8,3.9
	c0,2.1-1.7,3.9-3.8,3.9C68,74,66.3,72.3,66.3,70.2 M71.8,85c-2.1,0-3.8-1.7-3.8-3.9c0-2.1,1.7-3.9,3.8-3.9c2.1,0,3.7,1.7,3.7,3.9
	C75.5,83.2,73.9,85,71.8,85"/>
<path class="st0" d="M177.8,65V43.9h5.3V65c0,6,3.3,8.3,7.3,8.3c4,0,7.3-2.3,7.3-8.8V43.9h3.3V65c0,8.2-5.3,11.7-11.6,11.7
	C183.1,76.6,177.8,73,177.8,65"/>
<path class="st0" d="M220.8,76.2V62c0-3.5-0.8-6.1-4.3-6.1c-2.9,0-5.6,2.1-5.7,5.3v14.9H206V53.1h4.9V55c1.5-1.3,3.7-2.3,7-2.3
	c6.1,0,7.9,3.6,7.9,9.3v14.2H220.8z"/>
<path class="st0" d="M230.6,46.7h4.9v4h-4.9V46.7z M230.6,53.1h4.9v23h-4.9V53.1z"/>
<path class="st0" d="M253.1,76.2h-4.9c-1.4-3.9-7.1-19.2-8.5-23h5.1l6.6,17.9l6.6-17.9h3.5C260.1,57.1,254.5,72.2,253.1,76.2"/>
<path class="st0" d="M268.8,67.6c0,3.6,1.9,5.7,5.7,5.7c2.9,0,4.9-0.8,7.2-2.9l1.8,2.6c-2.2,2.4-5.7,3.5-9.4,3.5
	c-6.2,0-10.2-2.4-10.2-8.7v-7.1c0-6,5-8.1,10.6-8.1c5.3,0,9.3,2,9.3,7.6c0,6-4.8,7.4-9.6,7.4H268.8z M268.8,60.5v3.8h5.1
	c3.1,0,5-1.2,5-3.9c0-2.9-1.4-4.5-4.6-4.5C271.3,55.9,268.8,57.2,268.8,60.5"/>
<path class="st0" d="M301.4,57.3c-0.7-1-1.8-1.4-3-1.4c-2.9,0-5.6,2.1-5.7,5.3v14.9h-4.9V53.1h4.9V55c1.5-1.3,3.7-2.3,6.9-2.3
	c1.6,0,2.9,0.3,4.5,0.9C303.5,54.4,301.9,56.8,301.4,57.3"/>
<path class="st0" d="M306.9,73l1.8-2.4c1.7,2,3.9,2.8,6.3,2.8c2.8,0,4.7-1.2,4.7-3c0-4.6-12.1-4.7-12.1-11.7c0-3.6,3.4-6,8.5-6
	c3.4,0,6.2,1.1,8.3,3.1l-1.8,2.5c-1.7-1.7-3.9-2.4-6-2.4c-2.6,0-4.5,1.1-4.5,2.4c0,3.7,12.5,3.7,12.5,11.5c0,4.1-3.6,6.8-9.1,6.8
	C311.9,76.6,308.9,75.4,306.9,73"/>
<path class="st0" d="M328.9,46.7h4.9v4h-4.9V46.7z M328.9,53.1h4.9v23h-4.9V53.1z"/>
<path class="st0" d="M354.6,76.2v-1.4c-1.3,0.9-3.1,1.8-6.4,1.8c-7.1,0-9.9-6.3-9.9-12.1c0-6.7,2.9-11.8,9.6-11.8
	c3.4,0,5.3,1,6.8,2.2l0-11h4.9v32.3H354.6z M354.6,60.9c0-3.7-2.8-5.2-5.4-5.2c-4.7,0-5.7,4.8-5.7,8.7c0,3.8,1.5,8.8,6.1,8.8
	c3,0,5.1-1.1,5.1-4.4V60.9z"/>
<path class="st0" d="M378.8,61.7c0-4.1-2-5.8-6.6-5.8c-2.2,0-4.5,1-6.3,2.9l-1.8-2.6c2.2-2.4,5.7-3.6,9.3-3.6
	c6.2,0,10.2,2.4,10.2,8.7v14.8h-4.9v-1.4c-1.4,1.2-3.5,1.9-6,1.9c-5.3,0-9.3-2-9.3-7.6c0-5.9,4.4-7.4,9.3-7.4H378.8z M378.8,65h-5.4
	c-3.1,0-5.1,1.2-5.1,3.9c0,3.5,2.2,4.5,5.6,4.5c2.8,0,4.8-1.4,4.8-4.4L378.8,65z"/>
<path class="st0" d="M404,76.2v-1.4c-1.3,0.9-3.1,1.8-6.4,1.8c-7.1,0-9.9-6.3-9.9-12.1c0-6.7,2.9-11.8,9.6-11.8c3.4,0,5.3,1,6.8,2.2
	l0-11h4.9v32.3H404z M404,60.9c0-3.7-2.8-5.2-5.4-5.2c-4.7,0-5.7,4.8-5.7,8.7c0,3.8,1.5,8.8,6.1,8.8c3,0,5.1-1.1,5.1-4.4V60.9z"/>
<path class="st0" d="M440.1,76.2v-1.4c-1.3,0.9-3.1,1.8-6.4,1.8c-7.1,0-9.9-6.3-9.9-12.1c0-6.7,2.9-11.8,9.6-11.8
	c3.4,0,5.3,1,6.8,2.2l0-11h4.9v32.3H440.1z M440.1,60.9c0-3.7-2.8-5.2-5.4-5.2c-4.7,0-5.7,4.8-5.7,8.7c0,3.8,1.5,8.8,6.1,8.8
	c3,0,5.1-1.1,5.1-4.4V60.9z"/>
<path class="st0" d="M454.3,67.6c0,3.6,1.9,5.7,5.7,5.7c2.9,0,4.9-0.8,7.2-2.9l1.8,2.6c-2.2,2.4-5.7,3.5-9.4,3.5
	c-6.2,0-10.2-2.4-10.2-8.7v-7.1c0-6,5-8.1,10.6-8.1c5.3,0,9.3,2,9.3,7.6c0,6-4.8,7.4-9.6,7.4H454.3z M454.3,60.5v3.8h5.1
	c3.1,0,5-1.2,5-3.9c0-2.9-1.4-4.5-4.6-4.5C456.7,55.9,454.3,57.2,454.3,60.5"/>
<polygon class="st0" points="178,157.2 178,92.3 189.1,92.3 189.1,150.5 219.7,150.5 219.7,157.2 "/>
<path class="st0" d="M259,128.1c0-8.3-4.2-11.7-13.9-11.7c-4.5,0-9.6,1.9-13.4,5.9l-3.8-5.3c4.7-4.9,12.1-7.1,19.7-7.1
	c13.2,0,21.6,4.9,21.6,17.4v29.8H259v-2.9c-3,2.3-7.4,3.8-12.7,3.8c-11.2,0-19.5-4-19.5-15.2c0-11.8,9.4-14.8,19.5-14.8H259z
	 M259.1,134.7h-11.4c-6.6,0-10.7,2.3-10.7,7.9c0,6.9,4.6,9,11.8,9c6,0,10.1-2.9,10.1-8.8L259.1,134.7z"/>
<path class="st0" d="M292,148.4l4.8-5.1c5.8,5.8,11.7,8.1,18.9,8.1c8.4,0,13.5-3.7,13.5-9.5c0-15.9-35.4-14.6-35.4-34.5
	c0-9.7,9.1-15.9,23.3-15.9c9.6,0,17.7,3,23.4,8.4L336,105c-6.2-5.1-11.6-7-18.5-7c-7.3,0-11.2,2.8-11.2,7.2c0,13.7,35,13.5,35,34.6
	c0,10.9-10.1,18.2-25.1,18.2C305.6,158.1,297,154.2,292,148.4"/>
<path class="st0" d="M382.1,128.1c0-8.3-4.2-11.7-13.9-11.7c-4.5,0-9.6,1.9-13.4,5.9l-3.8-5.3c4.7-4.9,12.1-7.1,19.7-7.1
	c13.2,0,21.6,4.9,21.6,17.4v29.8h-10.2v-2.9c-3,2.3-7.4,3.8-12.7,3.8c-11.2,0-19.5-4-19.5-15.2c0-11.8,9.4-14.8,19.5-14.8H382.1z
	 M382.2,134.7h-11.4c-6.6,0-10.7,2.3-10.7,7.9c0,6.9,4.6,9,11.8,9c6,0,10.1-2.9,10.1-8.8L382.2,134.7z"/>
<path class="st0" d="M412,157.2h-10.2V92.3H412v22.1c3.1-2.5,7.1-4.5,14.2-4.5c14.3,0,20.3,10.4,20.3,23.8c0,11.8-6,24.4-20.9,24.4
	c-6.9,0-10.9-1.8-13.5-3.7V157.2z M412,126.2v16.3c0,6.8,4.5,8.9,10.7,8.9c9.7,0,12.9-10.2,12.9-17.8c0-7.8-2.3-17.5-12.2-17.5
	C418.1,116.1,412.2,118.9,412,126.2"/>
<path class="st0" d="M486.3,128.1c0-8.3-4.2-11.7-13.9-11.7c-4.5,0-9.6,1.9-13.4,5.9l-3.8-5.3c4.7-4.9,12.1-7.1,19.7-7.1
	c13.2,0,21.6,4.9,21.6,17.4v29.8h-10.2v-2.9c-3,2.3-7.4,3.8-12.7,3.8c-11.2,0-19.5-4-19.5-15.2c0-11.8,9.4-14.8,19.5-14.8H486.3z
	 M486.4,134.7H475c-6.6,0-10.7,2.3-10.7,7.9c0,6.9,4.6,9,11.8,9c6,0,10.1-2.9,10.1-8.8L486.4,134.7z"/>
<path class="st0" d="M537.3,157.2v-28.5c0-7-1.6-12.2-9-12.2c-6.2,0-11.8,4.3-12,10.7v30H506v-46.4h10.2v3.8
	c3.1-2.6,7.9-4.6,14.7-4.6c12.9,0,16.6,7.2,16.6,18.7v28.5H537.3z"/>
<path class="st0" d="M588.2,128.1c0-8.3-4.2-11.7-13.9-11.7c-4.5,0-9.6,1.9-13.4,5.9l-3.8-5.3c4.7-4.9,12.1-7.1,19.7-7.1
	c13.2,0,21.6,4.9,21.6,17.4v29.8h-10.2v-2.9c-3,2.3-7.4,3.8-12.7,3.8c-11.2,0-19.5-4-19.5-15.2c0-11.8,9.4-14.8,19.5-14.8H588.2z
	 M588.3,134.7H577c-6.6,0-10.7,2.3-10.7,7.9c0,6.9,4.6,9,11.8,9c6,0,10.1-2.9,10.1-8.8L588.3,134.7z"/>
</svg>
