<?xml version="1.0" encoding="utf-8"?>
<!-- Generator: Adobe Illustrator 22.0.0, SVG Export Plug-In . SVG Version: 6.00 Build 0)  -->
<svg version="1.1" id="Layer_1" xmlns="http://www.w3.org/2000/svg" xmlns:xlink="http://www.w3.org/1999/xlink" x="0px" y="0px"
	 viewBox="0 0 218.5 70.3" style="enable-background:new 0 0 218.5 70.3;" xml:space="preserve">
<style type="text/css">
	.st0{fill:#261F0F;}
	.st1{fill:#FFFFFF;}
	.st2{fill:#0C68AF;}
	.st3{fill:#09713D;}
	.st4{fill:#F89728;}
	.st5{fill:#E31E3A;}
	.st6{fill:#FDF058;}
	.st7{fill:#030303;}
	.st8{fill:#221F20;}
</style>
<polygon class="st0" points="36.5,8.2 36.5,8.2 36.4,8.2 36.4,8.2 36.4,8.2 36.3,8.2 36.3,8.2 36.2,8.3 36.2,8.3 36.1,8.3 36,8.4 
	36,8.4 35.9,8.5 35.8,8.6 35.8,8.6 34.4,10.1 33,11.5 32.7,11.9 32.3,12.2 32,12.6 31.6,12.9 31.3,13.3 30.9,13.6 30.6,14 
	30.2,14.3 29.9,14.6 29.5,15 29.2,15.3 28.8,15.6 28.5,16 28.1,16.3 27.7,16.6 27.4,16.9 27,17.2 26.6,17.5 26.2,17.9 25.9,18.1 
	25.5,18.4 25.1,18.7 24.7,19 24.3,19.3 23.8,19.6 23.3,20 22.8,20.3 22.4,20.6 21.9,21 21.4,21.3 20.9,21.7 20.5,22 20,22.4 
	19.6,22.7 19.1,23.1 18.6,23.4 18.2,23.8 17.7,24.2 17.3,24.6 16.8,24.9 16.4,25.3 16,25.7 15.5,26.1 15.1,26.6 14.7,27 14.2,27.4 
	13.8,27.9 13.4,28.3 12.9,28.8 12.5,29.2 12.1,29.7 11.7,30.2 11.3,30.7 10.8,31.2 10.4,31.8 10,32.3 9.9,32.4 9.8,32.5 9.8,32.5 
	9.7,32.6 9.7,32.7 9.6,32.7 9.6,32.8 9.5,32.9 9.5,33 9.4,33.1 9.4,33.1 9.3,33.2 9.3,33.3 9.3,33.4 9.3,33.5 9.3,33.6 9.2,33.8 
	9.3,33.9 9.3,34 9.3,34.1 9.3,34.2 9.4,34.3 9.4,34.5 9.5,34.6 9.5,34.7 9.6,34.8 9.7,35 9.9,35.1 10,35.2 10.1,35.4 10.8,35.9 
	11.3,36.3 11.8,36.7 12.3,37.1 13.2,37.7 14,38.3 14.3,38.6 14.6,38.8 14.9,39.1 15.2,39.3 15.5,39.6 15.7,39.8 16,40 16.2,40.3 
	16.5,40.6 16.7,40.9 17,41.2 17.2,41.5 17.5,41.9 17.8,42.2 18.1,42.7 18.4,43.1 18.7,43.6 19.1,44.2 19.5,44.8 19.9,45.4 
	20.3,46.1 20.8,46.9 21.3,47.7 21.8,48.6 22.1,49.1 22.4,49.5 22.7,50 23,50.5 23.3,50.9 23.7,51.4 24,51.8 24.4,52.2 24.7,52.7 
	25.1,53.1 25.5,53.5 25.9,54 26.3,54.4 26.7,54.8 27.1,55.2 27.5,55.6 28,56 28.4,56.4 28.8,56.8 29.2,57.1 29.6,57.5 30,57.9 
	30.4,58.2 30.8,58.6 31.6,59.3 32.4,59.9 32.7,60.2 33.1,60.6 33.4,60.9 33.7,61.1 33.8,61.3 33.9,61.4 34,61.4 34.1,61.5 
	34.2,61.6 34.2,61.7 34.3,61.7 34.4,61.8 34.5,61.8 34.5,61.9 34.6,61.9 34.7,61.9 34.7,61.9 34.8,61.9 34.9,61.9 34.9,61.9 
	34.9,61.9 35,61.9 35.1,61.8 35.1,61.8 35.2,61.8 35.2,61.7 35.3,61.7 35.3,61.6 35.4,61.6 35.4,61.5 35.5,61.5 35.6,61.4 
	35.7,61.2 35.8,61.1 36.1,60.6 36.4,60.1 36.7,59.7 37,59.2 37.3,58.8 37.6,58.4 37.9,58.1 38.2,57.7 38.5,57.3 38.9,57 39.2,56.6 
	39.5,56.3 39.9,56 40.2,55.6 40.6,55.3 41,55 41.4,54.7 41.8,54.4 42.2,54.1 42.6,53.8 43.1,53.5 43.6,53.2 44.1,52.8 44.6,52.5 
	45.1,52.2 45.7,51.9 46.3,51.5 46.9,51.1 47.5,50.8 48.2,50.4 48.9,50 49.6,49.6 50.4,49 51.1,48.5 51.7,48 52.3,47.5 52.9,47 
	53.4,46.6 54,46.2 54.4,45.7 54.9,45.3 55.3,44.9 55.7,44.6 56.1,44.2 56.5,43.8 56.8,43.5 57.2,43.2 57.5,42.8 57.8,42.5 
	58.1,42.2 58.3,41.8 58.6,41.5 58.9,41.2 59.1,40.9 59.4,40.6 59.6,40.2 60.6,38.9 61.7,37.4 61.7,37.4 61.7,37.3 61.7,37.2 
	61.8,37.1 61.8,37.1 61.8,37 61.8,36.9 61.8,36.8 61.8,36.8 61.8,36.7 61.8,36.6 61.8,36.6 61.8,36.5 61.7,36.4 61.7,36.4 
	61.7,36.3 61.7,36.3 61.7,36.2 61.6,36.1 61.6,36.1 61.6,36 61.6,36 61.5,35.9 61.5,35.9 61.5,35.8 61.5,35.8 61.4,35.8 61.4,35.7 
	61.3,35.7 61.3,35.7 61.3,35.6 61.2,35.6 60.7,35.2 60.3,34.7 59.8,34.2 59.3,33.8 59,33.5 58.8,33.3 58.5,33 58.3,32.8 58.1,32.5 
	57.8,32.2 57.6,32 57.3,31.7 57.1,31.4 56.8,31.2 56.6,30.9 56.3,30.6 56.1,30.3 55.8,30 55.6,29.7 55.3,29.3 55.1,29 54.8,28.7 
	54.6,28.3 54.3,28 54.1,27.6 53.8,27.3 53.6,26.9 53.3,26.5 52.9,25.8 52.5,25.1 52.1,24.3 51.7,23.6 51.2,22.9 50.7,22.2 
	50.2,21.6 49.7,20.9 49.2,20.2 48.6,19.5 48.1,18.9 47.5,18.2 46.9,17.6 46.3,17 45.7,16.4 45.1,15.8 44.5,15.2 43.9,14.6 43.4,14 
	42.8,13.5 42.2,13 41.7,12.5 41.1,12 40.6,11.5 39.5,10.6 38.6,9.8 38.2,9.4 37.8,9 37.4,8.7 37,8.3 37,8.3 36.9,8.3 36.9,8.3 
	36.9,8.2 36.8,8.2 36.8,8.2 36.7,8.2 36.7,8.2 36.6,8.2 36.6,8.2 36.6,8.2 "/>
<polygon class="st1" points="22.7,45.3 22.3,44.3 21.9,43.3 21.8,42.8 21.6,42.3 21.4,41.8 21.2,41.4 21,40.9 20.8,40.5 20.6,40 
	20.4,39.6 20.2,39.2 20,38.8 19.7,38.4 19.5,38 19.2,37.7 19,37.3 18.7,37 18.4,36.6 18.1,36.3 17.8,36 17.5,35.7 17.1,35.4 
	16.7,35.2 16.4,34.9 16,34.7 15.5,34.5 15.1,34.2 14.6,34.1 14.1,33.9 13.6,33.7 13.5,33.7 13.4,33.7 13.3,33.6 13.3,33.6 
	13.2,33.6 13.2,33.5 13.2,33.5 13.2,33.5 13.1,33.4 13.1,33.4 13.1,33.3 13.1,33.3 13.1,33.2 13.1,33.2 13.2,33.1 13.2,33.1 
	13.2,33 13.2,33 13.2,32.9 13.3,32.9 13.3,32.8 13.4,32.7 13.5,32.6 13.6,32.5 14,32.1 14.4,31.7 14.8,31.3 15.2,30.9 15.7,30.6 
	16.2,30.2 16.7,29.9 17.2,29.5 17.8,29.2 18.3,28.8 18.9,28.5 19.5,28.2 20.1,27.9 20.7,27.6 21.3,27.3 21.9,27.1 22.5,26.8 
	23.1,26.6 23.7,26.4 24.3,26.2 24.9,26 25.5,25.9 26.1,25.7 26.7,25.6 27.3,25.5 27.8,25.5 28.4,25.4 28.9,25.4 29.4,25.4 
	29.9,25.4 30.4,25.5 30.8,25.5 30.9,25.6 30.9,25.7 31,25.8 31.1,25.9 31.1,26 31.2,26.1 31.2,26.3 31.2,26.4 31.3,26.5 31.3,26.7 
	31.3,26.8 31.3,27 31.2,27.2 31.2,27.4 31.2,27.6 31.1,27.8 31,28 31,28.3 30.8,28.5 30.7,28.8 30.6,29 30.4,29.3 30.3,29.7 
	30.1,30 29.9,30.3 29.6,30.7 29.4,31 29.1,31.4 28.8,31.8 28.5,32.3 28.2,32.7 27.8,33.2 27.5,33.5 27.3,33.9 27.1,34.3 26.9,34.7 
	26.7,35.1 26.5,35.5 26.3,36 26.1,36.5 26,37 25.8,37.5 25.7,38 25.6,38.6 25.5,39.1 25.4,39.7 25.4,40.3 25.3,40.8 25.3,41.4 
	25.3,42 25.3,42.7 25.3,43.3 25.4,43.9 25.4,44.5 25.5,45.2 25.6,45.8 25.7,46.5 25.9,47.1 26,47.7 26.2,48.4 26.5,49 26.7,49.7 
	27,50.3 27.2,50.9 29.9,55.4 29.6,55.2 29.4,55 29.1,54.8 28.9,54.6 28.6,54.4 28.4,54.1 28.1,53.9 27.9,53.6 27.6,53.4 27.4,53.1 
	27.1,52.9 26.9,52.6 26.6,52.3 26.4,52 26.2,51.7 25.9,51.4 25.7,51.1 25.5,50.8 25.2,50.5 25,50.1 24.8,49.8 24.6,49.4 24.4,49.1 
	24.2,48.7 24,48.3 23.8,47.9 23.6,47.5 23.4,47.1 23.2,46.7 23.1,46.2 22.9,45.8 "/>
<polygon class="st1" points="33.4,57.6 32.9,57 32.3,56.3 32,56 31.7,55.6 31.4,55.2 31.1,54.8 30.8,54.4 30.5,54 30.2,53.6 
	29.9,53.1 29.6,52.7 29.4,52.2 29.1,51.7 28.8,51.2 28.6,50.7 28.3,50.2 28.1,49.6 27.9,49 27.7,48.5 27.5,47.8 27.3,47.2 
	27.2,46.6 27.1,45.9 27,45.2 26.9,44.5 26.8,43.8 26.8,43.1 26.8,42.3 26.9,41.5 26.9,40.7 27.1,40.7 27.3,40.8 27.5,40.8 
	27.7,40.8 27.9,40.8 28.1,40.9 28.2,40.9 28.4,40.9 28.6,41 28.8,41 28.9,41.1 29.1,41.2 29.3,41.2 29.5,41.3 29.6,41.4 29.8,41.5 
	30,41.6 30.2,41.7 30.4,41.8 30.5,41.9 30.7,42 30.9,42.1 31.1,42.2 31.3,42.4 31.5,42.5 31.7,42.7 31.9,42.8 32.1,43 32.3,43.2 
	32.5,43.3 32.7,43.5 32.9,43.7 33.4,44 33.8,44.2 34.2,44.5 34.7,44.7 35.1,44.9 35.6,45.1 36,45.3 36.5,45.5 36.9,45.7 37.4,45.8 
	37.9,45.9 38.4,46.1 38.8,46.2 39.3,46.3 39.8,46.3 40.3,46.4 40.8,46.4 41.3,46.5 41.9,46.5 42.4,46.5 42.9,46.4 43.5,46.4 
	44,46.3 44.6,46.2 45.2,46.1 45.7,46 46.3,45.9 46.9,45.7 47.5,45.5 48.1,45.3 48.8,45.1 49.4,44.8 49.7,44.7 49.9,44.6 50.2,44.5 
	50.5,44.3 50.7,44.2 50.9,44.1 51.2,44 51.4,43.8 51.6,43.7 51.9,43.6 52.1,43.4 52.3,43.3 52.5,43.2 52.8,43.1 53,42.9 53.2,42.8 
	53.6,42.5 54.1,42.2 54.5,42 55,41.7 55.9,41 56.9,40.4 56.6,40.8 56.4,41.2 56.1,41.6 55.8,42 55.5,42.4 55.1,42.7 54.8,43.1 
	54.4,43.5 54,43.9 53.6,44.3 53.2,44.7 52.7,45.1 52.2,45.5 51.8,45.9 51.3,46.3 50.7,46.7 50.2,47 49.6,47.4 49.1,47.8 48.5,48.2 
	47.8,48.6 47.2,48.9 46.6,49.3 45.9,49.7 45.2,50 44.5,50.4 43.8,50.7 43,51.1 42.2,51.4 41.5,51.8 40.7,52.1 39.8,52.4 39.6,52.5 
	39.4,52.7 39.3,52.8 39.1,52.9 38.9,53.1 38.7,53.2 38.6,53.4 38.4,53.5 38.2,53.7 38.1,53.8 37.9,54 37.8,54.1 37.6,54.3 
	37.5,54.5 37.3,54.6 37.2,54.8 36.9,55.2 36.6,55.5 36.3,55.9 36,56.2 35.7,56.6 35.4,56.9 35.3,57.1 35.1,57.2 34.9,57.4 
	34.8,57.6 34.8,57.6 34.8,57.7 34.7,57.8 34.7,57.8 34.7,57.9 34.7,57.9 34.6,57.9 34.6,58 34.6,58 34.5,58 34.5,58.1 34.4,58.1 
	34.4,58.1 34.4,58.1 34.3,58.1 34.3,58.1 34.2,58.1 34.2,58.1 34.1,58.1 34.1,58.1 34,58.1 34,58 33.9,58 33.9,58 33.8,57.9 
	33.8,57.9 33.7,57.9 33.6,57.8 33.6,57.8 33.5,57.7 33.5,57.7 "/>
<polygon class="st1" points="44.8,32.2 44.8,32.4 44.8,32.6 44.7,32.7 44.7,32.9 44.7,33.1 44.7,33.3 44.6,33.6 44.6,33.8 44.6,34 
	44.5,34.2 44.5,34.4 44.4,34.6 44.4,34.8 44.3,35 44.2,35.2 44.2,35.5 44.1,35.7 44,35.9 43.9,36.1 43.8,36.3 43.8,36.5 43.6,36.7 
	43.5,37 43.4,37.2 43.3,37.4 43.2,37.6 43,37.8 42.9,38 42.8,38.2 42.6,38.4 42.4,38.6 42.3,38.8 42,39.1 41.7,39.5 41.4,39.8 
	41.1,40.1 40.6,40.7 40,41.3 39.4,42 38.8,42.6 38.5,42.9 38.3,43.3 38,43.6 37.7,43.9 37.7,44 37.6,44 37.6,44.1 37.5,44.1 
	37.5,44.1 37.4,44.2 37.4,44.2 37.3,44.2 37.2,44.2 37.1,44.2 37.1,44.2 37,44.2 36.9,44.2 36.8,44.1 36.7,44.1 36.7,44.1 36.6,44 
	36.5,44 36.4,43.9 36.3,43.9 36.1,43.8 36,43.7 35.6,43.5 35.3,43.3 35,43.2 34.8,43 34.6,42.8 34.3,42.7 34.1,42.5 33.9,42.3 
	33.7,42.2 33.5,42 33.3,41.8 33.1,41.6 32.9,41.4 32.7,41.2 32.3,40.8 31.9,40.4 31.7,40.2 31.5,40 31.2,39.8 31,39.6 30.8,39.4 
	30.6,39.2 30.4,39 30.1,38.8 29.9,38.6 29.6,38.4 29.4,38.3 29.1,38.1 28.8,37.9 28.5,37.8 28.2,37.6 27.9,37.5 27.9,37.4 
	27.9,37.4 27.9,37.4 27.9,37.4 27.9,37.3 27.9,37.3 27.9,37.2 27.9,37.2 27.9,37.1 27.9,37.1 28,37 28,36.9 28.1,36.7 28.2,36.5 
	28.2,36.4 28.3,36.3 28.3,36.2 28.4,36.1 28.5,35.7 28.7,35.3 28.9,35 29.1,34.7 29.3,34.4 29.5,34.1 29.7,33.8 30,33.6 30.2,33.3 
	30.5,33.1 30.7,32.8 31,32.6 31.5,32.2 32.1,31.7 32.3,31.5 32.6,31.3 32.8,31 33.1,30.8 33.3,30.5 33.5,30.3 33.7,30 33.9,29.7 
	34.1,29.4 34.2,29.1 34.4,28.8 34.5,28.4 34.6,28 34.6,27.7 34.7,27.2 34.7,26.8 34.7,26.7 34.7,26.7 34.7,26.7 34.7,26.7 
	34.7,26.6 34.7,26.6 34.7,26.6 34.8,26.6 34.8,26.6 34.8,26.5 34.8,26.5 34.8,26.5 34.9,26.5 34.9,26.5 34.9,26.5 34.9,26.5 
	35,26.5 35,26.5 35.1,26.6 35.1,26.6 35.2,26.6 35.4,26.6 35.6,26.7 35.9,26.8 36.2,26.9 36.4,27 36.7,27.1 37,27.2 37.2,27.4 
	37.5,27.5 37.7,27.7 38,27.8 38.2,28 38.5,28.1 38.7,28.3 39,28.5 39.2,28.7 39.5,28.9 40,29.2 40.5,29.6 40.8,29.8 41,30 
	41.3,30.1 41.6,30.3 41.9,30.5 42.1,30.7 42.4,30.8 42.7,31 43,31.1 43.3,31.3 43.6,31.4 43.9,31.5 44,31.6 44.2,31.6 44.3,31.7 
	44.3,31.7 44.5,31.7 44.5,31.7 44.6,31.7 44.6,31.7 44.6,31.7 44.6,31.7 44.6,31.8 44.6,31.8 44.6,31.8 44.7,31.8 44.7,31.9 
	44.7,32 44.7,32.1 "/>
<polygon class="st1" points="37,12.7 37.3,13.1 37.5,13.5 37.8,13.8 38.1,14.2 38.7,15 39.3,15.8 39.6,16.1 39.9,16.5 40.2,16.9 
	40.5,17.3 40.8,17.7 41,18.1 41.3,18.5 41.6,18.9 41.9,19.4 42.1,19.8 42.4,20.2 42.6,20.6 42.9,21.1 43.1,21.5 43.3,22 43.5,22.4 
	43.8,22.9 44,23.4 44.1,23.9 44.3,24.3 44.5,24.8 44.6,25.4 44.8,25.9 44.9,26.4 44.9,26.5 44.9,26.6 44.9,26.7 44.9,26.8 
	44.9,26.8 44.8,26.9 44.8,27 44.8,27 44.8,27.1 44.8,27.1 44.7,27.2 44.7,27.2 44.7,27.3 44.7,27.3 44.6,27.4 44.6,27.4 44.6,27.4 
	44.5,27.4 44.5,27.5 44.4,27.5 44.4,27.5 44.3,27.5 44.3,27.5 44.2,27.5 44.2,27.5 44.1,27.5 44,27.5 44,27.5 43.9,27.5 43.8,27.5 
	43.8,27.5 43.7,27.5 43.4,27.4 43,27.3 42.7,27.2 42.4,27.1 42.1,27 41.9,26.8 41.6,26.7 41.3,26.6 40.2,26.1 39.1,25.6 38.8,25.5 
	38.6,25.4 38.3,25.3 38,25.2 37.7,25.1 37.4,25 37.1,24.9 36.8,24.8 36.5,24.7 36.2,24.6 35.9,24.5 35.5,24.4 35.2,24.3 34.8,24.2 
	34.5,24.1 34.1,24.1 33.7,24 33.3,24 32.9,23.9 32.4,23.9 32,23.9 31.5,23.8 31,23.8 30.5,23.8 30,23.8 29.5,23.9 29,23.9 
	28.5,23.9 27.9,24 27.4,24.1 26.8,24.2 26.2,24.3 25.7,24.4 25.1,24.6 24.5,24.7 23.9,24.9 23.3,25.1 22.7,25.3 22,25.6 21.4,25.8 
	20.8,26.1 20.1,26.5 19.5,26.8 18.8,27.2 18.1,27.6 17.5,28 16.8,28.5 16.1,29 16.5,28.5 16.9,28 17.3,27.6 17.7,27.2 18.1,26.8 
	18.5,26.4 19,26 19.4,25.6 19.9,25.2 20.3,24.9 20.8,24.5 21.3,24.2 21.8,23.8 22.2,23.5 22.7,23.2 23.3,22.9 23.8,22.5 24.3,22.2 
	24.8,21.9 25.4,21.6 26.4,21 27.6,20.3 28.1,20 28.7,19.7 29.3,19.3 29.9,19 30.5,18.7 31.1,18.3 31.7,17.9 32.3,17.6 36,13.4 
	36.1,13.4 36.1,13.3 36.2,13.2 36.2,13.2 36.3,13.1 36.3,13 36.4,13 36.4,12.9 36.5,12.9 36.6,12.9 36.6,12.8 36.7,12.8 36.7,12.8 
	36.8,12.7 36.9,12.7 "/>
<polygon class="st1" points="47.1,20.9 47.3,21.3 47.5,21.6 47.8,21.9 48,22.3 48.2,22.6 48.4,22.9 48.6,23.3 48.8,23.6 49,24 
	49.2,24.3 49.4,24.7 49.5,25 49.7,25.3 49.9,25.7 50.1,26 50.2,26.4 50.6,27.1 50.9,27.8 51.1,28.1 51.2,28.5 51.4,28.8 51.6,29.1 
	51.8,29.5 52,29.8 52.1,30.2 52.3,30.5 52.5,30.8 52.7,31.2 52.9,31.5 53.2,31.8 53.4,32.2 53.6,32.5 53.7,32.7 53.9,32.9 54,33.1 
	54.1,33.2 54.3,33.4 54.4,33.6 54.5,33.8 54.7,34 54.8,34.1 55,34.3 55.1,34.5 55.3,34.6 55.5,34.8 55.6,35 55.8,35.1 56,35.3 
	56.2,35.5 56.4,35.6 56.6,35.8 56.8,35.9 57.1,36 57.3,36.2 57.5,36.3 57.8,36.4 58,36.6 58.3,36.7 58.6,36.8 58.9,36.9 58.5,37.2 
	58.1,37.5 57.7,37.8 57.2,38.1 56.8,38.4 56.4,38.8 56,39.1 55.6,39.5 55.2,39.8 54.7,40.1 54.3,40.5 53.9,40.8 53.4,41.2 53,41.5 
	52.5,41.8 52.1,42.1 51.6,42.4 51.1,42.7 50.6,43 50.1,43.2 49.6,43.5 49,43.7 48.5,43.9 47.9,44.1 47.3,44.2 46.8,44.3 46.1,44.4 
	45.5,44.5 44.9,44.5 44.2,44.5 43.5,44.5 42.8,44.5 42.7,44.4 42.6,44.4 42.5,44.4 42.5,44.4 42.4,44.3 42.4,44.3 42.3,44.3 
	42.3,44.3 42.3,44.3 42.2,44.2 42.2,44.2 42.2,44.2 42.2,44.1 42.2,44.1 42.1,44.1 42.1,44 42.1,44 42.1,43.9 42.1,43.9 42.1,43.8 
	42.2,43.8 42.2,43.7 42.2,43.6 42.2,43.6 42.3,43.5 42.3,43.4 42.3,43.4 42.4,43.3 42.4,43.2 42.5,43.1 42.7,42.8 42.8,42.6 
	43,42.3 43.1,42 43.4,41.5 43.8,40.9 44.1,40.4 44.4,39.9 44.5,39.7 44.7,39.4 44.8,39.1 45,38.9 45.1,38.6 45.2,38.3 45.4,38.1 
	45.5,37.8 45.6,37.5 45.8,37.3 45.9,37 46,36.7 46.1,36.4 46.2,36.1 46.3,35.8 46.4,35.5 46.5,35.2 46.6,34.9 46.6,34.6 46.7,34.2 
	46.9,33.6 47,32.9 47.1,32.2 47.2,31.5 47.2,30.8 47.2,30.2 47.2,29.5 47.2,28.9 47.1,28.2 47.1,27.6 47,26.9 46.8,26.3 46.7,25.7 
	46.5,25.1 46.3,24.4 46.1,23.8 45.9,23.2 45.7,22.6 45.4,22 45.1,21.5 44.9,20.9 44.6,20.3 44.3,19.7 43.9,19.2 43.6,18.6 
	43.3,18.1 43,17.5 42.6,17 42.3,16.5 41.9,16 41.6,15.5 41.2,15 41.1,14.9 41,14.8 41,14.7 40.9,14.6 40.9,14.5 40.9,14.5 
	40.9,14.5 40.9,14.4 40.9,14.4 40.9,14.4 40.9,14.4 40.9,14.4 40.9,14.4 40.9,14.4 40.9,14.4 40.9,14.4 41.3,14.7 41.7,15 42,15.3 
	42.4,15.6 42.6,15.8 42.8,16 42.9,16.1 43.1,16.3 43.3,16.5 43.5,16.7 43.7,16.8 43.9,17 44.1,17.2 44.3,17.4 44.4,17.6 44.6,17.8 
	44.8,18 45,18.3 45.2,18.5 45.4,18.7 45.6,19 45.8,19.2 46,19.5 46.2,19.8 46.4,20 46.6,20.3 46.8,20.6 "/>
<polygon class="st2" points="15.3,31.6 15,32.1 14.7,32.6 14.7,32.8 14.9,33 15.1,33 15.2,33 15.5,32.9 15.6,33.2 16.2,33.4 
	16.3,33.6 16.5,33.8 16.8,33.7 17.1,33.3 17.2,33.3 17.2,33.4 17.3,33.5 17.3,33.7 17.3,33.9 17.4,34 17.6,34 17.8,34 18.2,34.2 
	18.3,34.3 18.3,34.5 18.4,34.6 18.5,34.6 18.6,34.5 18.8,34.3 18.9,34.3 19,34.6 19.1,34.7 19.4,34.8 19.8,34.7 19.9,34.8 
	19.9,34.9 19.9,34.9 20,35.1 19.9,35.2 19.9,35.9 19.8,36.3 19.9,36.7 19.9,36.7 20,36.9 20.5,36.9 20.7,36.8 21,36.6 21.2,36.5 
	21.3,36.6 21.2,36.9 21.1,37.4 21,38 21,38.5 21,38.6 21.2,38.7 21.3,38.8 21.2,38.9 21.3,39.1 21.3,39.2 21.5,39.5 21.5,39.6 
	21.6,39.8 21.7,40 21.6,40.3 21.7,40.6 21.7,40.8 21.7,40.9 21.9,41.1 22,41.4 22,41.5 22,41.5 22.1,41.7 22.1,42.1 22.1,42.3 
	22.1,43.1 22.3,43.8 22.4,43.7 22.5,43.5 22.6,43.4 22.7,43.4 22.7,43.6 22.8,43.7 22.9,43.8 22.8,43.9 22.9,44 22.9,44.2 
	23.1,44.3 23.1,44.4 23.1,44.6 23.2,45.6 23.3,46 23.6,46.8 23.7,46.7 23.8,46.6 23.8,46.4 23.9,46.5 24,46.6 24,46.7 24.1,46.9 
	24.2,47.2 24.2,47.2 24.7,47.7 25.2,49.2 25.3,49.5 25.5,49.7 25.8,49.8 26.4,51 26.7,51.5 26.9,51.9 27.2,52.3 27.4,52.6 
	27.6,52.9 27.7,52.9 27.9,52.8 27.9,52.7 27.9,52.6 27.8,52.2 27.5,51.8 27.3,51.5 27.1,51.3 27,51 26.9,50.5 26.8,50.4 26.6,50 
	26.4,49.7 26.2,48.9 25.9,48.2 25.8,47.9 25.7,47.3 25.6,46.6 25.5,45.7 25.5,45.4 25.5,45 25.3,44.8 25.2,44.8 25.1,44.9 25,44.8 
	25,44.5 25,44.5 25,44.5 25,44.5 25,44.5 25,44.5 25,44.5 25,44.4 25,44.2 25.1,43.4 25.3,42.2 25.2,42 25.1,42 24.9,42.2 
	24.9,42.3 24.8,42.2 24.8,42.2 24.7,42.2 24.6,42.4 24.5,42.4 24.5,42.4 24.5,42.2 24.8,41 25,40.3 25.2,39.5 25.2,39.3 25,39.3 
	24.8,39.5 24.6,39.5 24.5,39.4 24.6,39.4 24.7,39.1 24.9,38.6 24.9,38.5 24.7,38.6 24.6,38.7 24.5,38.6 24.6,38.5 24.7,38.1 
	24.8,38.1 24.9,37.9 25,37.7 25.2,37.4 25.3,37.1 25.5,36.9 25.6,36.7 25.6,36.7 25.7,36.6 25.6,36.5 25.5,36.5 25.4,36.5 
	25.5,36.2 25.8,35.7 25.7,35.5 25.6,35.6 25.6,35.5 25.6,35.3 25.8,35 26.3,34.3 26.2,34.2 26,34.1 25.8,34.1 25.7,34 26.1,33.5 
	26.3,33.2 26.9,32.6 27.4,32.3 27.7,31.9 27.8,31.8 27.7,31.7 27.6,31.7 27.3,31.8 27.1,31.9 26.9,31.9 26.9,31.8 27.1,31.7 
	27.4,31.4 27.6,31.2 27.8,31 28.2,30.9 28.4,30.6 28.7,30.4 28.9,30.2 29.2,30 29.5,30 29.6,29.8 29.5,29.7 29.4,29.6 29.1,29.5 
	28.8,29.5 28.4,29.5 28.3,29.5 28.4,29.3 28.7,29.2 29.4,28.7 29.7,28.6 29.8,28.5 29.9,28.3 29.8,28 29.5,27.9 29.2,27.8 
	29.2,27.8 29.2,27.8 29.2,27.8 29.2,27.8 29.2,27.8 29.2,27.8 29.2,27.8 29.2,27.8 29.3,27.7 29.4,27.6 29.7,27.4 29.7,27.3 
	29.8,27.2 29.8,27.1 29.7,27.1 29.7,27 29.7,26.9 29.7,26.8 29.6,26.7 29.4,26.6 29.2,26.6 29.2,26.5 29.4,26.4 29.5,26.3 
	29.6,26.2 29.4,26.1 29.2,26.1 28.9,26.2 28.4,26.3 28.3,26.3 28.1,26.3 28.2,26.2 28.2,26.2 28.2,26.1 28.1,26 27.9,26 27.6,26 
	27.3,26 27,26.1 26.8,26.2 26.7,26.1 26.7,26.1 26.9,26 27.1,25.9 27.1,25.8 27.1,25.7 26.2,25.8 25.9,26 25.1,26.4 24.8,26.5 
	24.7,26.5 24.6,26.5 24.1,26.7 23.9,26.8 23.2,27.1 22.6,27.3 22.3,27.5 22.2,27.4 21.6,27.7 21.4,27.6 21.1,27.7 20.6,28 20,28.5 
	19.5,29 19.1,29.2 18.8,29.3 18.7,29.2 18.1,29.5 17.3,30.1 16.7,30.5 16.3,30.7 15.9,31 "/>
<polygon class="st3" points="31.7,32.6 31.4,32.8 31,33 30.7,33.1 30.2,33.8 30.2,34.1 30.1,34.3 30.2,34.5 30.4,34.6 30.4,34.7 
	30.2,35.2 29.8,35.4 29.5,35.7 29.3,36 29.2,36.4 29.2,36.9 29.1,37.1 29.2,37.3 29.3,37.4 29.7,37.6 30,37.6 30.9,37.3 31,37.5 
	30.8,38 30.8,38.3 30.8,38.5 31,38.7 31.2,38.8 31.7,38.9 32.2,38.9 32.3,39.3 32.5,39.7 32.9,39.9 33.3,40.4 33.4,40.7 33.7,41.1 
	34.1,41.4 34.2,42 35.1,42.6 36.2,43.2 36.5,43.3 36.7,43.3 36.8,43.1 36.9,42.6 37.1,42.5 37.1,42.5 37.2,42.5 37.2,42.5 
	37.2,42.5 37.2,42.5 37.2,42.5 37.2,42.5 37.2,42.5 37.3,42.3 37.6,42.2 37.7,42.3 38.2,42.1 38.4,41.8 38.3,41.4 38.3,41.3 
	39.2,40.9 39.5,40.6 39.5,40.3 39.7,40.3 40,40.2 40.5,39.9 40.7,40 41,40 41.4,39.5 41.3,39.4 41.1,39.4 41.1,39.3 41.2,39.1 
	41.4,39 41.5,38.9 41.6,38.4 42,38 42.4,37.8 42.6,37.5 42.9,37.1 43,36.6 43,36.4 43,36.1 43.3,35.9 43.6,35.2 43.9,34.6 
	44.1,33.6 44.2,33.4 44.3,33.1 44.2,32.8 44.2,32.5 43.9,32.1 43.7,31.9 43.6,31.9 43.4,32.2 43.3,32.2 43.2,32.2 43.1,31.6 
	42.8,31.5 42.4,31.5 42.3,31.5 42.2,31.6 41.9,31.5 41.9,31.2 41.4,30.7 41.2,30.7 40.9,30.2 40.8,30.2 40,29.5 39.8,29.5 
	39.4,29.3 39.2,29 39.1,29 38.8,28.7 38.7,28.7 38.6,28.7 38.6,28.6 38.2,28.3 37.5,28 37.2,28 37,28 36.9,27.9 36.9,27.8 
	36.9,27.7 36.5,27.4 36.3,27.4 36.2,27.5 36,27.5 35.8,27.5 35.5,27.7 35.5,28 35.4,28.2 35.1,28.4 35,28.6 35,28.9 34.8,29 
	34.7,29.2 34.7,29.5 34.8,29.5 34.8,29.6 34.7,29.8 34.3,29.8 34.1,30.1 34.1,30.2 34.2,30.3 34.3,30.4 34.3,30.5 33.5,30.8 
	33.3,30.9 33.1,31.1 33.1,31.2 33.4,31.6 33.5,31.7 33.3,31.9 32.8,32.1 32.2,32.3 "/>
<polygon class="st4" points="27,43.1 26.9,42.6 27.2,42.5 27.2,42.2 27.2,42.2 27.2,42.2 27.2,42.2 27.2,42.2 27.2,42.2 27.2,42.2 
	27.4,41.7 27.5,41.3 27.7,41.1 27.9,41.1 28.1,41.2 28.3,41.1 28.5,41.1 28.9,41.4 29,41.4 29.2,41.5 29.3,41.7 29.5,41.9 
	29.6,41.9 29.7,41.8 29.8,41.8 30.3,42.1 30.4,42.3 30.6,42.3 30.6,42.4 30.7,42.5 30.7,42.7 30.7,42.8 30.8,42.9 30.9,42.8 
	31,42.7 31.1,42.7 31.3,42.8 31.4,42.9 31.6,43.1 31.9,43.5 31.9,43.6 32.2,43.7 32.7,44 33,44.4 33.3,44.7 33.4,44.8 33.7,44.7 
	34.1,44.7 34.6,45 35,45.3 35.4,45.7 35.9,46 37.1,46.6 37.5,46.6 38.1,46.7 38.8,47 39.3,47.3 39.5,47.2 40.2,47 41.1,46.8 
	41.3,46.9 41.9,47 42.6,47.1 43.5,46.8 44.3,46.7 44.9,46.7 45.3,46.6 45.8,46.3 46.4,46.1 46.9,45.8 47.5,45.7 48.2,45.5 
	49.3,45.1 49.5,45 50.2,44.6 50.9,44.2 51.5,44 52.2,43.7 52.8,43.2 53,43.1 53.2,43 53.2,43.1 53.5,43 53.5,43 54.4,42.3 
	54.7,42.1 55.1,42 55.3,42 55.4,42.2 55.4,42.3 55.1,42.5 54.3,43.3 53.9,43.7 53.3,44.2 52.6,44.7 52.1,45.1 51.6,45.4 51.1,45.6 
	50.9,45.7 50.6,45.9 50,46.4 49.3,46.6 48.6,47.2 47.4,48.1 46.8,48.2 46.8,48.3 46.5,48.3 46.3,48.2 46,48.2 45.9,48.3 45.6,48.4 
	45.3,48.6 45.3,48.6 45.1,48.8 44.9,48.9 44.8,49 44.6,49.1 44.5,49.3 43.7,49.5 43.4,49.5 43.3,49.5 42.9,49.4 42.4,49.5 
	42.2,49.6 41.5,50.3 41.1,50.5 40.8,50.7 40.4,50.7 40.1,50.7 40,50.7 39.7,51 39.6,51 39.2,50.9 39.1,50.9 39.1,51 39.1,51 
	39.1,51 39.1,51 39.1,51 39.1,51 39.1,51 39,51.1 39,51.2 38.9,51.3 38.8,51.5 38.6,51.6 38.6,51.8 38.5,51.9 38.4,52.3 38.2,52.6 
	38,52.8 37.6,52.8 37.3,52.7 37.1,52.5 36.9,52.5 36.6,52.3 36.5,52.2 36.4,52.2 36.4,52.4 36.3,52.6 36.2,52.8 36.3,53 36.3,53.1 
	36.3,53.3 36.3,53.5 36.3,53.7 36.2,54 35.8,54.1 35.5,54.1 35.2,54 35.1,53.9 34.9,53.8 34.9,53.9 34.9,54.2 34.8,54.6 34.8,55 
	34.8,55.3 34.9,55.8 34.8,56.2 34.8,56.5 34.4,56.6 34.4,56.6 34.4,56.6 34.4,56.6 34.4,56.6 34.4,56.6 34.4,56.6 34.4,56.6 
	34.4,56.6 34.2,56.4 33.9,56.3 33.6,56.1 33.5,56 33.4,56.1 32.9,56.3 32.7,56.1 32.4,55.8 32.1,55.6 31.5,54.9 31.2,54.4 
	31.2,54.2 31.1,53.5 30.8,53.3 30.5,53.1 30.2,52.6 30,52.5 29.9,52.3 29.7,52 29.5,51.4 29.2,50.9 29.1,50.7 29.2,50.6 29.2,50.5 
	29,50.3 28.9,50 28.6,49.7 28.4,49.3 28.2,48.9 28,48.5 28,48.4 28.1,48.3 28,47.8 28,47.7 28,47.6 27.6,47 27.4,46.6 27.4,46.3 
	27.4,46.1 27.2,45.3 27.1,44.9 27.1,44.3 27,43.8 27.1,43.4 "/>
<polygon class="st5" points="47.4,33.6 47.3,34.2 47,34.8 46.9,35 46.9,35.3 46.8,36 46.8,36.2 46.7,36.3 46.8,36.4 46.9,36.4 
	47,36.5 46.9,36.7 46.8,36.7 46.7,36.7 46.7,36.6 46.5,36.7 46.4,36.8 46.3,36.9 46.1,37.3 45.9,37.8 45.8,38.1 45.8,38.2 
	45.9,38.3 46.3,38.7 46.2,39.1 46.1,39.3 45.9,39.2 45.7,39.1 45.3,39.2 45.1,39.4 44.7,40.1 44.7,40.4 44.7,40.9 44.4,41.4 
	44.3,41.5 44,41.6 43.6,41.9 43.4,42.4 43.5,42.6 43.3,42.7 43.1,43 43.2,43.4 43.1,43.5 43.1,43.8 43.1,44.1 43.1,44.1 43,44.2 
	43,44.3 43.3,44.3 43.6,44.4 43.8,44.4 43.9,44.3 44,44.3 44.3,44.3 45.2,44.1 45.8,44.1 46.5,43.9 47.4,43.7 48.7,43.2 49.1,42.8 
	49,42.7 49.5,42.6 49.9,42.3 50.4,42.2 50.9,41.9 51.5,41.7 51.9,41.6 53.1,40.8 53.5,40.3 53.6,40.1 53.5,39.9 54.5,39.6 55,39.3 
	56,38.6 56.5,38.2 56.7,37.9 56.6,37.6 56.3,37.7 56.3,37.7 56.5,37.4 56.9,37 56.9,36.7 56.6,36.8 56.3,36.9 56.2,36.8 56,36.8 
	55.9,36.8 55.5,36.9 55.5,36.8 55.6,36.6 55.7,36.4 55.7,36.3 55.4,36.2 55,36.2 54.5,36.2 54.2,36.3 54.3,36.2 54.4,36 54.3,35.8 
	54,35.9 54,35.9 54,35.8 54.4,35.4 54.5,35 54.9,34.8 54.8,34.4 54.3,34.4 54.1,34.1 54,34.1 53.9,33.8 53.7,33.6 53.5,33.6 
	53.3,33.5 52.8,33.7 52.5,33.6 52.4,33.4 52,33.6 51.8,33.5 51.8,33.1 51.8,33 51.7,32.6 51.6,32.5 51.5,32.1 51.6,31.7 51.4,31.2 
	51.1,30.8 51,30.4 50.9,30.4 50.9,30.3 50.9,30.1 50.7,29.9 50.5,29.6 50.3,29.3 50.1,29 49.9,28.6 49.8,28.5 49.8,28.4 49.9,27.9 
	49.6,27.1 49.5,26.9 49.4,26.6 49.2,26.3 49.1,26.1 49.1,26.1 49.1,26.1 49.1,26.1 49.1,26.1 48.9,25.8 48.8,25.7 48.7,25.3 
	48.6,24.9 48.4,24.5 48.4,24.4 48.2,23.9 48,23.5 47.8,23 47.6,22.5 47.4,22.2 47.3,22 47.1,21.8 46.9,21.6 46.8,21.4 46.4,20.9 
	46.1,20.5 45.8,20.2 45.3,19.6 44.7,18.9 44.5,18.5 44.4,18.1 43.6,17.3 43.3,17.4 43.5,17.7 43.9,18.2 44.1,18.5 44,18.6 44,18.9 
	44.1,19.2 44.4,19.7 44.7,20 44.8,20.2 44.9,20.6 45.1,20.8 45.1,20.9 45.1,21 45.4,21.4 45.6,21.6 45.8,22 46,22.6 46.1,22.8 
	46.3,23.1 46.5,23.6 46.6,23.9 46.7,24.2 46.8,24.3 46.9,24.5 46.9,24.6 47,24.8 47,25 47.1,25.3 47.2,25.4 47.2,25.8 47.3,26.1 
	47.3,26.4 47.3,26.9 47.3,27.1 47.4,27.5 47.4,27.6 47.4,27.8 47.4,27.9 47.4,28.2 47.4,28.5 47.5,28.5 47.6,28.9 47.6,29.1 
	47.6,29.3 47.7,29.5 47.7,29.8 47.7,30 47.8,30.1 48,30.2 48.1,30.3 47.9,30.9 47.8,31.3 47.8,31.5 47.8,31.7 47.9,31.8 47.9,32 
	47.7,32.7 47.6,33.1 47.7,33.2 47.7,33.3 47.7,33.5 47.6,33.6 47.6,33.5 47.5,33.5 47.4,33.5 "/>
<polygon class="st6" points="21.9,24 22.4,23.8 22.5,23.7 22.5,23.6 22.6,23.5 22.7,23.5 22.7,23.5 22.8,23.4 22.9,23.3 23,23.2 
	23.1,23.2 23.1,23.1 23.2,23 23.3,23 23.9,22.8 24.1,22.7 24.2,22.6 24.3,22.5 24.5,22.4 24.6,22.4 25.1,22.2 25.3,22.1 25.3,22.1 
	25.4,21.9 25.5,21.8 25.7,21.6 26.2,21.4 26.3,21.3 26.6,21.1 27,21 27.1,21 27.2,21 27.3,20.9 27.5,20.9 27.5,20.8 27.7,20.7 
	28,20.7 28.2,20.7 28.5,20.6 28.8,20.5 28.9,20.3 29,20.2 29.1,20.1 29.3,19.9 29.5,19.8 29.7,19.7 30.1,19.6 30.3,19.6 30.6,19.6 
	30.8,19.5 31.1,19.5 31.1,19.3 31.1,19.1 31.1,19 31.3,18.9 31.3,18.7 31.4,18.6 31.7,18.6 31.8,18.6 31.9,18.5 32,18.5 32.1,18.4 
	32.2,18.4 32.1,18.3 32.1,18.2 32.2,18.1 32.4,18.1 32.5,18 32.5,17.9 32.7,17.8 32.9,17.8 33,17.8 33.3,17.7 33.5,17.6 33.5,17.4 
	33.5,17.4 33.6,17.3 33.6,17.2 33.7,17 33.9,17 34,17 34.3,17.1 34.6,17 34.8,17 34.8,17 34.9,16.9 34.9,16.9 34.9,16.8 34.8,16.7 
	34.8,16.5 34.8,16.4 34.8,16.3 35,16.2 35.3,16.1 35.5,16 35.5,15.9 35.6,15.5 35.7,15.3 35.7,15.1 35.8,15 35.7,14.7 35.8,14.4 
	35.9,14.3 36.5,14.1 36.5,14 36.7,13.7 36.9,13.7 37,13.5 37.3,13.5 37.5,13.5 37.6,13.8 37.9,14.4 38.1,14.6 38.2,14.7 38.2,14.7 
	38.2,14.8 38.3,14.8 38.3,14.9 38.6,15.3 38.7,15.6 38.9,16 39,16.5 39.1,16.6 39.2,17.1 39.3,17.5 39.3,17.9 39.5,17.9 39.8,17.8 
	40.1,17.9 40.3,17.9 40.4,18 40.6,18.2 40.9,18.5 40.9,18.7 40.9,18.8 40.9,19 40.9,19 40.9,19.1 41,19.1 41,19.2 41.1,19.3 
	41.4,19.4 41.5,19.5 41.7,19.8 41.9,20.1 42.1,20.5 42.2,20.8 42.4,21.7 42.5,21.9 42.6,22 43,22.3 43.1,22.5 43.2,22.7 43.3,22.9 
	43.3,23 43.4,23.2 43.4,23.3 43.4,23.4 43.3,23.5 43.3,23.7 43.3,23.8 43.4,23.8 43.5,23.9 43.7,24 43.9,24.3 44,24.4 44.1,24.8 
	44.2,25.2 44.2,25.5 44.1,25.8 44,25.8 43.9,25.8 43.9,25.9 43.8,26.1 43.6,26.3 43.6,26.3 43.4,26.3 43.3,26.3 43.1,26.2 
	42.9,26.2 42.7,26.2 42.5,26.1 42.1,26 41.7,25.7 41.5,25.7 41.3,25.8 41.1,25.7 40.8,25.5 40.6,25.3 40.5,25.3 40.1,25.2 
	39.9,25.1 39.7,24.9 39.6,24.9 39.6,25 39.6,25.1 39.5,25.2 39.3,25.1 39,25 38.7,24.9 38.4,24.7 38.1,24.6 37.8,24.4 37.6,24.2 
	37.4,24 37.3,23.9 37.2,23.9 37.2,24.1 37.2,24.2 37.2,24.4 37.1,24.6 36.9,24.6 36.6,24.6 36.2,24.4 35.9,24.3 35.4,24.1 
	35.1,23.9 34.8,23.7 34.6,23.6 34.5,23.4 34.4,23.3 34.2,23.3 34.1,23.5 33.8,23.5 33.5,23.5 33.1,23.5 32.7,23.5 32.4,23.4 
	32.1,23.3 31.9,23.1 31.8,23 31.4,23.1 31.2,23.2 31.1,23.2 30.9,23.4 30.6,23.5 30.4,23.5 30,23.5 29.5,23.4 29.3,23.4 29.3,23.3 
	29.1,23.1 29,23.1 28.8,23.3 28.5,23.5 28.1,23.5 27.7,23.6 27.2,23.6 26.9,23.6 26.8,23.5 26.4,23.5 26.2,23.5 26,23.5 25.9,23.7 
	25.7,23.8 25.6,23.9 25.3,24.1 24.9,24.2 24.9,24.2 24.7,24.2 24.6,24.2 24.5,24.3 24.2,24.5 23.3,24.8 23,24.7 22.9,24.8 22.5,25 
	22.3,25.2 21.9,25.4 21.2,25.5 20.9,25.6 20.5,26.1 20.3,26.2 20.1,26.2 19.8,26.4 19.6,26.4 19.5,26.6 18.9,27 18.5,27.2 
	18.3,27.2 18,27.3 17.9,27.1 18.2,26.9 18.4,26.7 18.4,26.6 18.6,26.5 19.1,26 19.6,25.6 20.4,25 20.8,24.7 21,24.6 21.1,24.4 
	21.3,24.3 21.5,24.1 "/>
<rect x="69.9" y="20.6" class="st7" width="7.2" height="19.7"/>
<path class="st7" d="M81.8,40.3V20.6h6.9l6.1,10.3c-0.1-0.5-0.1-1-0.2-1.5c0-0.6,0-1.3,0-2.2v-6.6h6.8v19.7h-7l-6-10.2
	c0.1,0.4,0.1,0.9,0.2,1.4c0,0.5,0.1,1.1,0.1,1.7v7.1H81.8z"/>
<path class="st7" d="M106,40.3V20.6h6.9l6.1,10.3c-0.1-0.5-0.1-1-0.2-1.5c0-0.6-0.1-1.3-0.1-2.2v-6.6h6.8v19.7h-7l-6-10.2
	c0.1,0.4,0.1,0.9,0.2,1.4c0,0.5,0.1,1.1,0.1,1.7v7.1H106z"/>
<path class="st7" d="M140.1,34.2c1,0,1.8-0.3,2.4-1c0.6-0.7,0.9-1.6,0.9-2.7c0-1.1-0.3-2-0.9-2.7c-0.6-0.7-1.4-1-2.4-1
	c-1,0-1.8,0.3-2.4,1c-0.6,0.7-0.9,1.6-0.9,2.7c0,1.1,0.3,2,0.9,2.7C138.3,33.8,139.1,34.2,140.1,34.2 M150.6,30.5
	c0,1.4-0.3,2.8-0.8,4c-0.5,1.2-1.3,2.4-2.2,3.3c-1,1-2.1,1.7-3.4,2.2c-1.3,0.5-2.7,0.8-4.1,0.8c-1.5,0-2.9-0.3-4.1-0.8
	c-1.3-0.5-2.4-1.3-3.4-2.2c-1-0.9-1.7-2-2.2-3.3c-0.5-1.2-0.8-2.6-0.8-4c0-1.5,0.3-2.8,0.8-4.1c0.5-1.2,1.2-2.3,2.2-3.3
	c1-1,2.1-1.7,3.4-2.2c1.3-0.5,2.7-0.8,4.1-0.8c1.5,0,2.9,0.3,4.1,0.8c1.3,0.5,2.4,1.2,3.4,2.2c1,1,1.7,2.1,2.2,3.3
	C150.3,27.7,150.6,29,150.6,30.5"/>
<path class="st7" d="M158.7,40.3l-7.5-19.7h7.7l2.1,7.1c0.3,1,0.5,1.9,0.7,2.6c0.1,0.7,0.2,1.4,0.3,2h0.1c0.1-0.7,0.2-1.4,0.4-2.1
	c0.2-0.7,0.4-1.5,0.6-2.4l2.2-7.3h7.5l-7.5,19.7H158.7z"/>
<polygon class="st7" points="174.5,40.3 174.5,20.6 187.7,20.6 187.7,25.9 181.5,25.9 181.5,27.8 187.1,27.8 187.1,32.9 181.5,32.9 
	181.5,34.9 187.9,34.9 187.9,40.3 "/>
<path class="st7" d="M206.1,28.4c-0.6-0.6-1.3-1.1-2-1.4c-0.7-0.3-1.4-0.5-2.1-0.5c-1.2,0-2.1,0.4-2.8,1.1c-0.7,0.7-1.1,1.7-1.1,2.8
	c0,1.2,0.3,2.1,1,2.8c0.7,0.7,1.6,1,2.7,1c0.7,0,1.4-0.1,2.1-0.4c0.7-0.3,1.5-0.8,2.3-1.4l-0.2,7.4c-0.8,0.3-1.5,0.5-2.3,0.7
	c-0.8,0.2-1.5,0.2-2.3,0.2c-1,0-1.9-0.1-2.8-0.3c-0.9-0.2-1.7-0.5-2.4-0.9c-1.7-1-3.1-2.3-4-3.8c-0.9-1.5-1.3-3.3-1.3-5.3
	c0-1.5,0.2-2.8,0.8-4.1c0.5-1.3,1.2-2.4,2.2-3.3c1-1,2.1-1.7,3.4-2.2c1.3-0.5,2.7-0.7,4.2-0.7c0.8,0,1.6,0.1,2.4,0.2
	c0.8,0.2,1.5,0.4,2.3,0.7V28.4z"/>
<rect x="69.8" y="46.1" class="st8" width="0.8" height="5.3"/>
<path class="st8" d="M74,48.3c-0.2-0.2-0.5-0.3-0.9-0.3c-0.3,0-0.5,0.1-0.7,0.2l-0.2,0.1v-0.2h-0.7v3.3h0.7v-1.7
	c0-0.4,0.1-0.6,0.2-0.8c0.1-0.1,0.3-0.2,0.6-0.2c0.2,0,0.4,0.1,0.5,0.2c0.1,0.1,0.1,0.3,0.1,0.6v2h0.8v-2.2
	C74.3,48.8,74.2,48.5,74,48.3"/>
<path class="st8" d="M77.6,48.3c-0.2-0.2-0.5-0.3-0.9-0.3c-0.3,0-0.5,0.1-0.7,0.2l-0.2,0.1v-0.2h-0.7v3.3h0.7v-1.7
	c0-0.4,0.1-0.6,0.2-0.8c0.1-0.1,0.3-0.2,0.6-0.2c0.2,0,0.4,0.1,0.5,0.2c0.1,0.1,0.1,0.3,0.1,0.6v2h0.8v-2.2
	C77.9,48.8,77.8,48.5,77.6,48.3"/>
<path class="st8" d="M79.2,49.7c0-0.3,0.1-0.6,0.3-0.8c0.2-0.2,0.4-0.3,0.7-0.3c0.3,0,0.5,0.1,0.7,0.3c0.2,0.2,0.3,0.5,0.3,0.8
	c0,0.3-0.1,0.6-0.3,0.8c-0.2,0.2-0.4,0.3-0.7,0.3c-0.3,0-0.5-0.1-0.7-0.3C79.3,50.3,79.2,50.1,79.2,49.7 M81.9,49.1
	c-0.1-0.2-0.2-0.4-0.4-0.6c-0.2-0.2-0.4-0.3-0.6-0.4C80.7,48,80.5,48,80.2,48c-0.2,0-0.5,0-0.7,0.1c-0.2,0.1-0.4,0.2-0.6,0.4
	c-0.2,0.2-0.3,0.4-0.4,0.6c-0.1,0.2-0.1,0.4-0.1,0.7c0,0.2,0,0.5,0.1,0.7c0.1,0.2,0.2,0.4,0.4,0.6c0.2,0.2,0.4,0.3,0.6,0.4
	c0.2,0.1,0.4,0.1,0.7,0.1h0c0.2,0,0.5,0,0.7-0.1l-0.1-0.2l0.1,0.2c0.2-0.1,0.4-0.2,0.6-0.4c0.2-0.2,0.3-0.4,0.4-0.6
	C82,50.2,82,50,82,49.7C82,49.5,82,49.3,81.9,49.1"/>
<polygon class="st8" points="84.5,48.1 83.7,50.1 82.8,48.1 82,48.1 83.7,51.8 83.8,51.5 85.3,48.1 "/>
<path class="st8" d="M87.5,50.5c-0.2,0.2-0.3,0.3-0.6,0.3c-0.3,0-0.5-0.1-0.6-0.3c-0.1-0.2-0.2-0.4-0.2-0.8c0-0.4,0.1-0.6,0.2-0.8
	c0.2-0.2,0.3-0.3,0.6-0.3c0.3,0,0.5,0.1,0.6,0.3c0.1,0.2,0.2,0.4,0.2,0.8C87.8,50.1,87.7,50.3,87.5,50.5 M87.8,48.1v0.2l-0.2-0.1
	c-0.2-0.1-0.5-0.2-0.7-0.2c-0.5,0-0.9,0.2-1.1,0.5c-0.3,0.3-0.4,0.8-0.4,1.3c0,0.5,0.1,1,0.4,1.3c0.3,0.3,0.7,0.5,1.2,0.5h0
	c0.3,0,0.5-0.1,0.7-0.2l0.2-0.1v0.2h0.7v-3.3H87.8z"/>
<path class="st8" d="M91.8,50.5l-0.4,0.2l-0.4,0.1c-0.3,0-0.6-0.1-0.8-0.3c-0.2-0.2-0.3-0.4-0.3-0.8c0-0.4,0.1-0.6,0.3-0.9
	c0.2-0.2,0.4-0.3,0.8-0.3l0.4,0.1l0.4,0.2l0.2,0.2l0-0.9l-0.1,0c-0.1-0.1-0.3-0.1-0.5-0.2c-0.2,0-0.4-0.1-0.5-0.1
	c-0.5,0-1,0.2-1.3,0.5c-0.3,0.3-0.5,0.8-0.5,1.3c0,0.5,0.2,0.9,0.5,1.3c0.3,0.3,0.7,0.5,1.2,0.5h0c0.2,0,0.4,0,0.6-0.1
	c0.2,0,0.4-0.1,0.5-0.2l0.1,0v-0.9L91.8,50.5z"/>
<path class="st8" d="M92.5,51.4h0.8v-3.3h-0.8V51.4z M92.5,46.7l-0.1,0.3l0.1,0.3l0.3,0.1h0l0.3-0.1l0.1-0.3l-0.1-0.3l-0.3-0.1
	L92.5,46.7z"/>
<path class="st8" d="M96.4,50.5c-0.2,0.2-0.4,0.3-0.7,0.3c-0.3,0-0.5-0.1-0.7-0.3c-0.2-0.2-0.3-0.5-0.3-0.8c0-0.3,0.1-0.6,0.3-0.8
	c0.2-0.2,0.4-0.3,0.7-0.3c0.3,0,0.5,0.1,0.7,0.3c0.2,0.2,0.3,0.5,0.3,0.8C96.7,50.1,96.6,50.3,96.4,50.5 M97.3,49.1
	c-0.1-0.2-0.2-0.4-0.4-0.6c-0.2-0.2-0.4-0.3-0.6-0.4C96.1,48,95.9,48,95.6,48c-0.2,0-0.5,0-0.7,0.1c-0.2,0.1-0.4,0.2-0.6,0.4
	c-0.2,0.2-0.3,0.4-0.4,0.6c-0.1,0.2-0.1,0.4-0.1,0.7c0,0.2,0,0.5,0.1,0.7c0.1,0.2,0.2,0.4,0.4,0.6c0.2,0.2,0.4,0.3,0.6,0.4
	c0.2,0.1,0.4,0.1,0.7,0.1c0.2,0,0.5,0,0.7-0.1l-0.1-0.2l0.1,0.2c0.2-0.1,0.4-0.2,0.6-0.4c0.2-0.2,0.3-0.4,0.4-0.6
	c0.1-0.2,0.1-0.4,0.1-0.7C97.4,49.5,97.4,49.3,97.3,49.1 M95.6,47.8l1.2-1.5h-1l-0.9,1.5L95.6,47.8L95.6,47.8z"/>
<path class="st8" d="M100.5,48.3c-0.2-0.2-0.5-0.3-0.9-0.3c-0.3,0-0.5,0.1-0.7,0.2l-0.2,0.1v-0.2H98v3.3h0.7v-1.7
	c0-0.4,0.1-0.6,0.2-0.8c0.1-0.1,0.3-0.2,0.6-0.2c0.2,0,0.4,0.1,0.5,0.2c0.1,0.1,0.1,0.3,0.1,0.6v2h0.8v-2.2
	C100.8,48.8,100.7,48.5,100.5,48.3"/>
<path class="st8" d="M104.2,49.2l0.2-0.4c0.1-0.1,0.3-0.2,0.5-0.2c0.3,0,0.4,0.1,0.5,0.2l0.2,0.4H104.2z M105.9,50l-0.1,0.2
	c-0.1,0.2-0.2,0.4-0.4,0.5c-0.1,0.1-0.3,0.2-0.5,0.2c-0.3,0-0.5-0.1-0.6-0.3c-0.1-0.2-0.2-0.4-0.2-0.7h2.4v-0.3
	c0-0.5-0.1-0.9-0.4-1.2c-0.3-0.3-0.7-0.5-1.1-0.5c-0.5,0-0.9,0.2-1.2,0.5c-0.3,0.3-0.4,0.8-0.4,1.3c0,0.5,0.1,0.9,0.5,1.3
	c0.3,0.3,0.7,0.5,1.2,0.5h0c0.3,0,0.7-0.1,0.9-0.2c0.3-0.2,0.5-0.4,0.6-0.7l0.1-0.1L105.9,50z"/>
<path class="st8" d="M109.6,48.3c-0.2-0.2-0.5-0.3-0.9-0.3c-0.3,0-0.5,0.1-0.7,0.2l-0.2,0.1v-0.2h-0.7v3.3h0.7v-1.7
	c0-0.4,0.1-0.6,0.2-0.8c0.1-0.1,0.3-0.2,0.6-0.2c0.2,0,0.4,0.1,0.5,0.2c0.1,0.1,0.1,0.3,0.1,0.6v2h0.8v-2.2
	C109.9,48.8,109.8,48.5,109.6,48.3"/>
<rect x="112.7" y="45.8" class="st8" width="0.8" height="5.6"/>
<path class="st8" d="M116.3,50.5c-0.2,0.2-0.3,0.3-0.6,0.3c-0.3,0-0.5-0.1-0.6-0.3c-0.1-0.2-0.2-0.4-0.2-0.8c0-0.4,0.1-0.6,0.2-0.8
	c0.2-0.2,0.3-0.3,0.6-0.3c0.3,0,0.5,0.1,0.6,0.3c0.1,0.2,0.2,0.4,0.2,0.8C116.5,50.1,116.5,50.3,116.3,50.5 M116.5,48.1v0.2
	l-0.2-0.1c-0.2-0.1-0.5-0.2-0.7-0.2c-0.5,0-0.8,0.2-1.1,0.5c-0.3,0.3-0.4,0.8-0.4,1.3c0,0.5,0.1,1,0.4,1.3c0.3,0.3,0.7,0.5,1.2,0.5
	h0c0.3,0,0.5-0.1,0.7-0.2l0.2-0.1v0.2h0.7v-3.3H116.5z"/>
<path class="st8" d="M205.8,50.6l-0.4-0.1l-0.4,0.1l-0.1,0.4l0.1,0.4l0.1-0.1l-0.1,0.1l0.4,0.1h0l0.4-0.1l0.1-0.4L205.8,50.6z
	 M203.4,46.1c-0.3-0.1-0.6-0.1-0.9-0.1c-0.4,0-0.7,0.1-1.1,0.2c-0.3,0.1-0.7,0.3-0.9,0.6c-0.3,0.2-0.5,0.5-0.6,0.9
	c-0.1,0.3-0.2,0.7-0.2,1.1c0,0.4,0.1,0.8,0.2,1.1c0.1,0.3,0.3,0.6,0.6,0.9c0.3,0.2,0.6,0.4,0.9,0.6c0.3,0.1,0.7,0.2,1.1,0.2
	c0.3,0,0.6,0,0.9-0.1c0.3-0.1,0.6-0.2,0.8-0.4l0.1,0v-1l-0.3,0.2c-0.2,0.2-0.5,0.3-0.7,0.4c-0.3,0.1-0.5,0.1-0.8,0.1
	c-0.3,0-0.5-0.1-0.8-0.1c-0.2-0.1-0.4-0.2-0.6-0.4c-0.2-0.2-0.3-0.4-0.4-0.6c-0.1-0.2-0.1-0.5-0.1-0.8c0-0.6,0.2-1.1,0.6-1.5
	c0.4-0.4,0.8-0.6,1.5-0.6c0.3,0,0.5,0,0.8,0.1c0.2,0.1,0.5,0.2,0.7,0.4l0.3,0.2l0-0.9l-0.1,0C203.9,46.4,203.7,46.2,203.4,46.1
	 M198.4,50.4l-0.4,0.1l-0.1,0.4l0.1,0.4l0.1-0.1l-0.1,0.1l0.4,0.1h0l0.4-0.1L199,51l-0.1-0.4L198.4,50.4z M194.7,49l0.6-1.6L196,49
	H194.7z M193,51.4h0.8l0-0.1l0.6-1.6h1.8l0.6,1.7h0.8l-2.3-5.8L193,51.4z M189.9,50.5c-0.2,0.2-0.3,0.3-0.6,0.3
	c-0.3,0-0.5-0.1-0.6-0.3c-0.1-0.2-0.2-0.4-0.2-0.8c0-0.4,0.1-0.6,0.2-0.8c0.2-0.2,0.3-0.3,0.6-0.3c0.3,0,0.5,0.1,0.6,0.3
	c0.1,0.2,0.2,0.4,0.2,0.8C190.1,50.1,190.1,50.3,189.9,50.5 M190.1,48.3l-0.2-0.1c-0.2-0.1-0.5-0.2-0.7-0.2c-0.5,0-0.8,0.2-1.1,0.5
	c-0.3,0.3-0.4,0.8-0.4,1.3c0,0.5,0.1,1,0.4,1.3c0.3,0.3,0.7,0.5,1.2,0.5h0c0.3,0,0.5-0.1,0.7-0.2l0.2-0.1v0.2h0.7v-3.3h-0.7V48.3z
	 M186.3,51.4h0.8v-3.3h-0.8V51.4z M186.7,46.6l-0.3,0.1l-0.1,0.3l0.1,0.3l0.1-0.1l-0.1,0.1l0.3,0.1h0l0.3-0.1l0.1-0.3l-0.1-0.3
	L186.7,46.6z M185.1,50.8l-0.4,0.1c-0.3,0-0.6-0.1-0.8-0.3c-0.2-0.2-0.3-0.4-0.3-0.8c0-0.4,0.1-0.6,0.3-0.9c0.2-0.2,0.4-0.3,0.8-0.3
	l0.4,0.1l0.4,0.2l0.3,0.2l0-0.9l-0.1,0c-0.1-0.1-0.3-0.1-0.5-0.2c-0.2,0-0.4-0.1-0.5-0.1c-0.5,0-1,0.2-1.3,0.5
	c-0.3,0.3-0.5,0.8-0.5,1.3c0,0.5,0.2,0.9,0.5,1.3c0.3,0.3,0.7,0.5,1.2,0.5h0c0.2,0,0.4,0,0.6-0.1c0.2,0,0.4-0.1,0.5-0.2l0.1,0v-0.9
	l-0.3,0.2L185.1,50.8z M181.1,48c-0.3,0-0.5,0.1-0.7,0.2l-0.2,0.1v-0.2h-0.7v3.3h0.7v-1.7c0-0.4,0.1-0.6,0.2-0.8
	c0.1-0.1,0.3-0.2,0.6-0.2c0.2,0,0.4,0.1,0.5,0.2c0.1,0.1,0.1,0.3,0.1,0.6v2h0.7v-2.2c0-0.4-0.1-0.7-0.3-0.9
	C181.8,48.1,181.5,47.9,181.1,48 M176.8,48.9c0.1-0.1,0.3-0.2,0.5-0.2c0.2,0,0.4,0.1,0.5,0.2l0.2,0.4h-1.5L176.8,48.9z M178.3,50.2
	c-0.1,0.2-0.2,0.4-0.4,0.5c-0.1,0.1-0.3,0.2-0.5,0.2c-0.3,0-0.5-0.1-0.6-0.3c-0.1-0.2-0.2-0.4-0.2-0.7h2.4v-0.3
	c0-0.5-0.1-0.9-0.4-1.2c-0.3-0.3-0.7-0.5-1.1-0.5c-0.5,0-0.9,0.2-1.2,0.5c-0.3,0.3-0.5,0.8-0.5,1.3c0,0.5,0.1,0.9,0.5,1.3
	c0.3,0.3,0.7,0.5,1.2,0.5h0c0.3,0,0.7-0.1,0.9-0.2c0.3-0.2,0.5-0.4,0.6-0.7l0.1-0.1l-0.7-0.4L178.3,50.2z M174.5,51.4h0.8v-3.3h-0.8
	V51.4z M174.8,46.6l-0.3,0.1l-0.1,0.3l0.1,0.3l0.1-0.1l-0.1,0.1l0.3,0.1h0l0.3-0.1l0.1-0.3l-0.1-0.3L174.8,46.6z M173,46.1
	c-0.3-0.1-0.6-0.1-0.9-0.1c-0.4,0-0.7,0.1-1.1,0.2c-0.3,0.1-0.7,0.3-0.9,0.6c-0.3,0.2-0.5,0.5-0.6,0.9c-0.1,0.3-0.2,0.7-0.2,1.1
	c0,0.4,0.1,0.8,0.2,1.1c0.1,0.3,0.3,0.6,0.6,0.9c0.3,0.2,0.6,0.4,0.9,0.6c0.3,0.1,0.7,0.2,1.1,0.2c0.3,0,0.6,0,0.9-0.1
	c0.3-0.1,0.6-0.2,0.8-0.4l0.1,0v-1l-0.3,0.2c-0.2,0.2-0.5,0.3-0.7,0.4c-0.3,0.1-0.5,0.1-0.8,0.1c-0.3,0-0.5-0.1-0.8-0.1
	c-0.2-0.1-0.4-0.2-0.6-0.4c-0.2-0.2-0.3-0.4-0.4-0.6c-0.1-0.2-0.1-0.5-0.1-0.8c0-0.6,0.2-1.1,0.6-1.5c0.4-0.4,0.8-0.6,1.5-0.6
	c0.3,0,0.5,0,0.8,0.1c0.2,0.1,0.5,0.2,0.7,0.4l0.3,0.2l0-0.9l-0.1,0C173.6,46.4,173.3,46.2,173,46.1 M165.7,50.5
	c-0.2,0.2-0.3,0.3-0.6,0.3c-0.3,0-0.5-0.1-0.6-0.3c-0.1-0.2-0.2-0.4-0.2-0.8c0-0.4,0.1-0.6,0.2-0.8c0.2-0.2,0.3-0.3,0.6-0.3
	c0.3,0,0.5,0.1,0.6,0.3c0.1,0.2,0.2,0.4,0.2,0.8C165.9,50.1,165.8,50.3,165.7,50.5 M165.9,48.3l-0.2-0.1c-0.2-0.1-0.5-0.2-0.8-0.2
	c-0.4,0-0.8,0.2-1.1,0.5c-0.3,0.3-0.4,0.8-0.4,1.3c0,0.5,0.1,1,0.4,1.3c0.3,0.3,0.7,0.5,1.2,0.5h0c0.3,0,0.5-0.1,0.7-0.2l0.2-0.1
	v0.2h0.7v-3.3h-0.7V48.3z M162.1,51.4h0.8v-5.6h-0.8V51.4z M157.4,48.9c0.1-0.1,0.3-0.2,0.5-0.2c0.2,0,0.4,0.1,0.5,0.2l0.2,0.4h-1.5
	L157.4,48.9z M158.9,50.2c-0.1,0.2-0.2,0.4-0.4,0.5c-0.1,0.1-0.3,0.2-0.5,0.2c-0.3,0-0.5-0.1-0.6-0.3c-0.1-0.2-0.2-0.4-0.2-0.7h2.4
	v-0.3c0-0.5-0.1-0.9-0.4-1.2c-0.3-0.3-0.7-0.5-1.1-0.5c-0.5,0-0.9,0.2-1.2,0.5c-0.3,0.3-0.5,0.8-0.4,1.3c0,0.5,0.1,0.9,0.5,1.3
	c0.3,0.3,0.7,0.5,1.2,0.5h0c0.3,0,0.7-0.1,0.9-0.2c0.3-0.2,0.5-0.4,0.6-0.7l0.1-0.1l-0.7-0.4L158.9,50.2z M154.9,50.5
	c-0.2,0.2-0.3,0.3-0.6,0.3c-0.3,0-0.5-0.1-0.6-0.3c-0.1-0.2-0.2-0.4-0.2-0.8c0-0.4,0.1-0.6,0.2-0.8c0.2-0.2,0.3-0.3,0.6-0.3
	c0.3,0,0.5,0.1,0.6,0.3c0.1,0.2,0.2,0.4,0.2,0.8C155.1,50.1,155,50.3,154.9,50.5 M155.1,48.3l-0.2-0.1c-0.2-0.1-0.5-0.2-0.7-0.2
	c-0.5,0-0.8,0.2-1.1,0.5c-0.3,0.3-0.4,0.8-0.4,1.3c0,0.5,0.1,1,0.4,1.3c0.3,0.3,0.7,0.5,1.2,0.5h0c0.3,0,0.5-0.1,0.7-0.2l0.2-0.1
	v0.2h0.7v-5.6h-0.7V48.3z M125.3,48c-0.3,0-0.5,0.1-0.7,0.2l-0.2,0.1v-0.2h-0.7v3.3h0.7v-1.7c0-0.4,0.1-0.6,0.2-0.8
	c0.1-0.1,0.3-0.2,0.6-0.2c0.2,0,0.4,0.1,0.5,0.2c0.1,0.1,0.1,0.3,0.1,0.6v2h0.7v-2.2c0-0.4-0.1-0.7-0.3-0.9
	C126,48.1,125.6,47.9,125.3,48 M128.2,48.7l0.3,0.1l0.2,0.2l0.1,0.2l0.7-0.4l-0.1-0.1c-0.1-0.2-0.2-0.4-0.4-0.5
	c-0.2-0.1-0.4-0.2-0.7-0.2c-0.3,0-0.6,0.1-0.8,0.3c-0.2,0.2-0.3,0.5-0.3,0.7c0,0.2,0.1,0.4,0.2,0.6c0.2,0.2,0.4,0.3,0.7,0.4l0.1,0
	c0.2,0.1,0.3,0.2,0.4,0.2l0.1,0.2l-0.1,0.2l-0.3,0.1l-0.4-0.1l-0.2-0.3l-0.1-0.2l-0.7,0.4l0.1,0.1c0.1,0.2,0.3,0.4,0.5,0.6
	c0.2,0.1,0.5,0.2,0.7,0.2c0.4,0,0.7-0.1,0.9-0.3c0.2-0.2,0.4-0.5,0.4-0.8c0-0.3-0.1-0.5-0.2-0.7c-0.1-0.2-0.4-0.3-0.7-0.4
	c-0.3-0.1-0.5-0.2-0.5-0.2l-0.1-0.2l0.1-0.2L128.2,48.7z M135,48c-0.3,0-0.5,0.1-0.7,0.2l-0.2,0.1v-0.2h-0.7v3.3h0.7v-1.7
	c0-0.4,0.1-0.6,0.2-0.8c0.1-0.1,0.3-0.2,0.6-0.2c0.2,0,0.4,0.1,0.5,0.2c0.1,0.1,0.2,0.3,0.2,0.6v2h0.7v-2.2c0-0.4-0.1-0.7-0.3-0.9
	C135.7,48.1,135.4,47.9,135,48 M142.4,48c-0.3,0-0.5,0.1-0.7,0.2l-0.2,0.1v-0.2h-0.7v3.3h0.7v-1.7c0-0.4,0.1-0.6,0.2-0.8
	c0.1-0.1,0.3-0.2,0.6-0.2c0.2,0,0.4,0.1,0.5,0.2c0.1,0.1,0.1,0.3,0.1,0.6v2h0.8v-2.2c0-0.4-0.1-0.7-0.3-0.9
	C143.1,48.1,142.8,47.9,142.4,48 M146.8,48.1h-2.8v0.7h1.4l-1.7,2.6h2.9v-0.7h-1.6L146.8,48.1z M139,50.5c-0.2,0.2-0.3,0.3-0.6,0.3
	c-0.3,0-0.5-0.1-0.6-0.3c-0.1-0.2-0.2-0.4-0.2-0.8c0-0.4,0.1-0.6,0.2-0.8c0.2-0.2,0.3-0.3,0.6-0.3c0.3,0,0.5,0.1,0.6,0.3
	c0.1,0.2,0.2,0.4,0.2,0.8C139.3,50.1,139.2,50.3,139,50.5 M139.3,48.3l-0.2-0.1c-0.2-0.1-0.5-0.2-0.7-0.2c-0.5,0-0.8,0.2-1.1,0.5
	c-0.3,0.3-0.4,0.8-0.4,1.3c0,0.5,0.1,1,0.4,1.3c0.3,0.3,0.7,0.5,1.2,0.5h0c0.3,0,0.5-0.1,0.7-0.2l0.2-0.1v0.2h0.7v-3.3h-0.7V48.3z
	 M120.1,51.4h2.8v-0.8h-2v-1.8h2v-0.7h-2v-1.2h2v-0.7h-2.8V51.4z M130.7,48.9c0.1-0.1,0.3-0.2,0.5-0.2c0.3,0,0.4,0.1,0.6,0.2
	l0.2,0.4h-1.5L130.7,48.9z M132.2,50.2c-0.1,0.2-0.2,0.4-0.4,0.5c-0.1,0.1-0.3,0.2-0.5,0.2c-0.3,0-0.5-0.1-0.6-0.3
	c-0.1-0.2-0.2-0.4-0.2-0.7h2.4v-0.3c0-0.5-0.1-0.9-0.4-1.2c-0.3-0.3-0.7-0.5-1.1-0.5c-0.5,0-0.9,0.2-1.2,0.5
	c-0.3,0.3-0.5,0.8-0.5,1.3c0,0.5,0.1,0.9,0.5,1.3c0.3,0.3,0.7,0.5,1.2,0.5h0c0.3,0,0.7-0.1,0.9-0.2c0.3-0.2,0.5-0.4,0.6-0.7l0.1-0.1
	l-0.7-0.4L132.2,50.2z M134.3,47.6L134.3,47.6l0.2-0.1l0.1,0l0.1,0l0.3,0.1h0l0.1,0l0.1,0c0.2,0,0.4-0.1,0.5-0.2
	c0.1-0.1,0.2-0.3,0.3-0.5l0.1-0.2h-0.6l0,0.1l-0.1,0.1l-0.1,0l-0.1,0l-0.1,0l-0.3-0.1l-0.1,0l-0.1,0c-0.2,0-0.4,0.1-0.5,0.2
	c-0.1,0.1-0.2,0.3-0.3,0.5l-0.1,0.2L134.3,47.6L134.3,47.6z M149.1,50.5c-0.2,0.2-0.3,0.3-0.6,0.3c-0.3,0-0.5-0.1-0.6-0.3
	c-0.1-0.2-0.2-0.4-0.2-0.8c0-0.4,0.1-0.6,0.2-0.8c0.2-0.2,0.3-0.3,0.6-0.3c0.3,0,0.5,0.1,0.6,0.3c0.1,0.2,0.2,0.4,0.2,0.8
	C149.3,50.1,149.2,50.3,149.1,50.5 M149.3,48.3l-0.2-0.1c-0.2-0.1-0.5-0.2-0.7-0.2c-0.5,0-0.8,0.2-1.1,0.5c-0.3,0.3-0.4,0.8-0.4,1.3
	c0,0.5,0.1,1,0.4,1.3c0.3,0.3,0.7,0.5,1.2,0.5h0c0.3,0,0.5-0.1,0.7-0.2l0.2-0.1v0.2h0.7v-3.3h-0.7V48.3z"/>
</svg>
