<?xml version="1.0" encoding="utf-8"?>
<!-- Generator: Adobe Illustrator 16.0.4, SVG Export Plug-In . SVG Version: 6.00 Build 0)  -->
<!DOCTYPE svg PUBLIC "-//W3C//DTD SVG 1.1//EN" "http://www.w3.org/Graphics/SVG/1.1/DTD/svg11.dtd">
<svg version="1.1"
	 id="svg3466" xmlns:inkscape="http://www.inkscape.org/namespaces/inkscape" xmlns:svg="http://www.w3.org/2000/svg" xmlns:cc="http://creativecommons.org/ns#" xmlns:rdf="http://www.w3.org/1999/02/22-rdf-syntax-ns#" xmlns:dc="http://purl.org/dc/elements/1.1/" xmlns:sodipodi="http://sodipodi.sourceforge.net/DTD/sodipodi-0.dtd" sodipodi:docname="Neues Dokument 3" inkscape:version="0.48.1 "
	 xmlns="http://www.w3.org/2000/svg" xmlns:xlink="http://www.w3.org/1999/xlink" x="0px" y="0px" width="200px" height="56px"
	 viewBox="0 0 200 56" enable-background="new 0 0 200 56" xml:space="preserve">
<path id="path360" inkscape:connector-curvature="0" fill="#0098A1" d="M0.313,48.943v-3.049c1.735,0.547,3.273,0.819,4.608,0.819
	c1.843,0,2.767-0.488,2.767-1.463c0-0.362-0.134-0.668-0.403-0.916c-0.276-0.262-0.979-0.626-2.113-1.089
	c-2.032-0.838-3.357-1.551-3.975-2.14C0.4,40.327,0,39.345,0,38.16c0-1.524,0.582-2.689,1.745-3.489
	c1.152-0.793,2.649-1.188,4.498-1.188c1.017,0,2.491,0.188,4.417,0.563v2.932c-1.434-0.572-2.764-0.859-3.993-0.859
	c-1.734,0-2.6,0.477-2.6,1.43c0,0.357,0.175,0.647,0.525,0.873c0.29,0.183,1.09,0.569,2.4,1.158
	c1.884,0.835,3.138,1.562,3.763,2.182c0.742,0.732,1.114,1.683,1.114,2.848c0,1.67-0.728,2.946-2.183,3.828
	c-1.178,0.713-2.705,1.068-4.582,1.068C3.518,49.505,1.921,49.318,0.313,48.943"/>
<path id="path362" inkscape:connector-curvature="0" fill="#0098A1" d="M14.304,33.751h4.314v15.443h-4.314V33.751z"/>
<path id="path366" inkscape:connector-curvature="0" fill="#0098A1" d="M22.571,49.193V33.749h11.062v2.795h-6.905v3.485h6.011
	v2.548h-6.011v3.664h7.085v2.951H22.571z"/>
<path id="path370" inkscape:connector-curvature="0" fill="#0098A1" d="M36.628,49.193V33.749h5.592l3.885,9.867l3.982-9.867h5.312
	v15.443h-4.09V38.26l-4.528,11.089h-2.673L39.667,38.26v10.933H36.628z"/>
<path id="path374" inkscape:connector-curvature="0" fill="#0098A1" d="M59.356,49.193V33.749h11.062v2.795h-6.905v3.485h6.011
	v2.548h-6.011v3.664h7.085v2.951H59.356z"/>
<path id="path378" inkscape:connector-curvature="0" fill="#0098A1" d="M73.435,49.193V33.749h5l5.302,10.339V33.749h3.04v15.443
	h-4.857l-5.443-10.477v10.477H73.435z"/>
<path id="path382" inkscape:connector-curvature="0" fill="#0098A1" d="M89.837,48.943v-3.049c1.723,0.547,3.258,0.819,4.608,0.819
	c1.845,0,2.767-0.488,2.767-1.463c0-0.362-0.131-0.668-0.391-0.916c-0.277-0.262-0.984-0.626-2.124-1.089
	c-2.024-0.83-3.353-1.543-3.974-2.14c-0.799-0.772-1.199-1.757-1.199-2.954c0-1.521,0.582-2.681,1.745-3.48
	c1.149-0.793,2.649-1.188,4.497-1.188c1.038,0,2.386,0.163,4.035,0.497l0.383,0.066v2.932c-1.435-0.572-2.77-0.859-4.006-0.859
	c-1.727,0-2.585,0.477-2.585,1.43c0,0.357,0.174,0.647,0.522,0.873c0.275,0.176,1.078,0.559,2.41,1.158
	c1.867,0.835,3.121,1.562,3.752,2.182c0.744,0.732,1.112,1.683,1.112,2.848c0,1.67-0.722,2.946-2.17,3.828
	c-1.185,0.713-2.717,1.068-4.595,1.068C93.043,49.505,91.443,49.318,89.837,48.943"/>
<path id="path386" inkscape:connector-curvature="0" d="M116.676,45.167h1.562l0.269,2.767c0.891,0.537,1.652,0.758,2.566,0.758
	c2.032,0,3.348-1.247,3.348-3.146c0-0.758-0.223-1.405-0.671-1.828c-0.514-0.493-0.78-0.647-3.036-1.605
	c-1.67-0.693-2.52-1.161-3.101-1.675c-0.602-0.537-0.937-1.407-0.937-2.434c0-2.767,1.918-4.485,4.998-4.485
	c1.541,0,2.723,0.312,4.018,1.071v3.169h-1.52l-0.243-2.744c-0.735-0.559-1.407-0.781-2.299-0.781c-1.853,0-3.058,1.16-3.058,2.945
	c0,1.451,0.604,2.008,3.348,3.145c3.526,1.43,4.396,2.322,4.396,4.465c0,2.857-1.965,4.619-5.154,4.619
	c-1.497,0-2.902-0.289-4.486-0.937V45.167z"/>
<path id="path390" inkscape:connector-curvature="0" d="M127.898,38.652V37.87h0.291c1.784,0,2.456-0.738,2.856-3.146h0.738v3.146
	h2.989v0.781h-2.989v7.208c0,1.962,0.356,2.59,1.449,2.59c0.467,0,0.846-0.158,1.361-0.581l0.447,0.581
	c-0.805,0.689-1.474,0.958-2.479,0.958c-1.986,0-2.7-0.938-2.7-3.548v-7.208H127.898z"/>
<path id="path394" inkscape:connector-curvature="0" d="M140.888,34.009c0,0.713-0.513,1.227-1.205,1.227
	c-0.737,0-1.251-0.514-1.251-1.247c0-0.692,0.514-1.205,1.229-1.205C140.375,32.783,140.888,33.296,140.888,34.009 M136.96,48.471
	l1.63-0.067c0.066-0.738,0.11-2.633,0.11-4.018v-1.719c0-1.428-0.044-3.256-0.11-4.018l-1.63-0.066v-0.711l3.749-0.115
	c-0.065,1.051-0.11,3.349-0.11,4.71v1.919c0,1.206,0.045,3.081,0.11,4.018l1.63,0.067v0.714h-5.379V48.471z"/>
<path id="path398" inkscape:connector-curvature="0" d="M144.146,48.471l1.718-0.065c0.045-0.582,0.111-2.612,0.111-4.018v-5.736
	h-1.829V37.87h1.829v-0.849c0-1.718,0.156-2.499,0.603-3.146c0.56-0.781,1.496-1.229,2.612-1.229c0.87,0,1.538,0.158,2.656,0.604
	l-0.069,2.41h-1.428l-0.133-1.92c-0.358-0.268-0.625-0.379-0.96-0.379c-0.515,0-0.96,0.312-1.159,0.805
	c-0.18,0.467-0.224,0.936-0.224,2.363v1.34h2.542v0.781h-2.542v5.736c0,1.316,0.044,3.101,0.11,4.018l2.032,0.065v0.712h-5.87
	V48.471z"/>
<path id="path402" inkscape:connector-curvature="0" d="M152.335,38.652V37.87h0.289c1.784,0,2.456-0.738,2.856-3.146h0.736v3.146
	h2.991v0.781h-2.991v7.208c0,1.962,0.358,2.59,1.451,2.59c0.47,0,0.849-0.158,1.359-0.581l0.449,0.581
	c-0.802,0.689-1.476,0.958-2.478,0.958c-1.987,0-2.701-0.938-2.701-3.548v-7.208H152.335z"/>
<path id="path406" inkscape:connector-curvature="0" d="M164.429,37.759c-0.089,2.721-0.11,4.039-0.11,4.71v1.74
	c0,1.605,0.09,2.365,0.335,2.945c0.311,0.781,0.892,1.16,1.764,1.16c1.091,0,2.254-0.781,3.28-2.209v-7.454l-1.74-0.066V37.87
	l3.749-0.111c-0.091,3.1-0.114,3.973-0.114,4.71v1.919c0,1.337,0.044,2.99,0.114,4.018l1.63,0.063v0.714h-3.44l-0.064-2.051
	c-1.495,1.672-2.59,2.275-4.107,2.275c-1.449,0-2.5-0.691-2.969-1.919c-0.269-0.713-0.335-1.316-0.335-3.548v-1.271
	c0-1.385-0.022-3.236-0.064-4.018l-1.676-0.066V37.87L164.429,37.759z"/>
<path id="path410" inkscape:connector-curvature="0" d="M174.649,48.471l1.63-0.065c0.065-0.672,0.11-2.657,0.11-4.018v-1.719
	c0-1.361-0.066-2.947-0.155-4.018l-1.585-0.068V37.87l3.524-0.111l0.069,2.119c1.406-1.585,2.587-2.232,4.082-2.232
	c1.363,0,2.456,0.717,2.901,1.898c0.269,0.737,0.337,1.339,0.337,3.57v1.273c0,1.427,0.044,3.125,0.11,4.018l1.63,0.065v0.712
	h-5.377v-0.712l1.628-0.065c0.066-0.738,0.11-2.637,0.11-4.018v-1.54c0-1.563-0.091-2.277-0.333-2.835
	c-0.335-0.758-0.895-1.117-1.765-1.117c-1.116,0-2.209,0.692-3.279,2.054v3.438c0,1.271,0.065,3.37,0.11,4.018l1.63,0.065v0.712
	h-5.379V48.471z"/>
<path id="path414" inkscape:connector-curvature="0" d="M196.363,40.727c-0.962-1.405-1.786-1.987-2.925-1.987
	c-1.784,0-2.877,1.787-2.877,4.731c0,2.747,1.047,4.263,2.945,4.263c1.046,0,1.852-0.467,2.856-1.628V40.727z M200,37.87v0.713
	l-1.628,0.068c-0.066,1.093-0.112,3.236-0.112,4.507v4.775c0,2.945-0.179,3.794-0.94,4.665c-0.89,1.027-2.388,1.606-4.147,1.606
	c-1.342,0-2.479-0.267-3.996-0.959l0.11-2.478h1.54l0.114,1.875c0.647,0.489,1.405,0.737,2.277,0.737
	c1.405,0,2.452-0.647,2.811-1.696c0.245-0.716,0.335-1.742,0.335-3.572v-0.96c-1.093,1.274-2.053,1.764-3.414,1.764
	c-1.251,0-2.388-0.513-3.191-1.472c-0.805-0.96-1.205-2.277-1.205-4.041c0-3.479,1.74-5.756,4.396-5.756
	c1.405,0,2.275,0.467,3.458,1.809l0.066-1.699L200,37.87z"/>
<path id="path416" inkscape:connector-curvature="0" d="M108.609,30h0.781v22.983h-0.781V30z"/>
</svg>
