<?xml version="1.0" encoding="utf-8"?>
<!-- Generator: $$$/GeneralStr/196=Adobe Illustrator 27.6.0, SVG Export Plug-In . SVG Version: 6.00 Build 0)  -->
<svg version="1.1" id="Layer_1" xmlns="http://www.w3.org/2000/svg" xmlns:xlink="http://www.w3.org/1999/xlink" x="0px" y="0px"
	 viewBox="0 0 661.2 29.5" style="enable-background:new 0 0 661.2 29.5;" xml:space="preserve">
<style type="text/css">
	.st0{fill:#334650;}
	.st1{fill:#2D2E2D;}
	.st2{fill:none;stroke:#979797;}
	
		.st3{clip-path:url(#SVGID_00000051342480131980693430000002840071246198661542_);fill:none;stroke:#979797;stroke-width:2;stroke-miterlimit:10;}
</style>
<g>
	<path class="st0" d="M73.3,15.6h-5.1l1.5-4.2l0.4-1.2c0.1-0.2,0.2-0.5,0.2-0.5c0.1-0.4,0.1-0.4,0.4-1.5c0.4,1.3,0.6,1.9,1.1,3.3
		L73.3,15.6z M74.2,18.1l1.2,3.4l-2,0.1V24h7.3v-2.4l-1.8-0.1L72.6,5h-3.7l-6.1,16.6L61,21.6V24h7.1v-2.4l-2-0.1l1.2-3.4H74.2z
		 M44,21.5l-2,0.1V24h13.9v-5.4h-2.6l-0.2,2.8h-5.8v-5.7h5.4V13h-5.4V7.6h5.4l0.2,2.7h2.6V5H42.1v2.4l2,0.1V21.5z M26.6,13.4V7.6
		h1.4c1.6,0,2.4,0.1,3,0.5c0.7,0.4,1.2,1.3,1.2,2.3c0,1.1-0.5,2-1.5,2.5c-0.7,0.3-1.5,0.5-2.9,0.5H26.6z M23.3,21.5l-2,0.1V24h7.3
		v-2.4l-2-0.1V16h0.9c2.2,0,2.8,0.6,4.2,3.9l1.7,4.1h4.2v-2.4L36,21.6l-1.3-3.1c-1.2-2.8-1.5-3.2-2.8-3.6c2.4-0.6,3.8-2.3,3.8-4.8
		c0-1.7-0.7-3.2-2-4.1c-1-0.7-2.4-1-4.6-1h-7.6v2.4l2,0.1V21.5z M15.3,20.3c-1.8,1-2.8,1.3-4.4,1.3c-3.6,0-5.8-2.7-5.8-7.1
		c0-4.4,2.2-7.2,5.6-7.2c0.8,0,1.5,0.1,2.2,0.4l0.2,2.8h2.6V5.6c-1.9-0.7-3.4-1-5.2-1c-5.5,0-9,3.8-9,10c0,6,3.4,9.7,9.1,9.7
		c2,0,3.4-0.3,5.4-1.3L15.3,20.3z"/>
	<path class="st1" d="M638.6,22.1l-1.8,0.1v1.2h5.3v-1.2l-1.7-0.1V10.2c0.7,2.3,0.9,2.8,1.4,4.2l3.5,9.1h2.1l3.4-9.2
		c0.6-1.5,0.6-1.6,1.4-4v11.9l-1.7,0.1v1.2h5.4v-1.2l-1.8-0.1V8.8l1.8-0.1V7.5h-4.3l-4.4,12c-0.3,0.9-0.5,1.4-0.8,2.2
		c-0.3-1-0.5-1.3-0.8-2.2l-4.5-12.1h-4.4v1.2l1.8,0.1V22.1z M626.3,22.1l-1.8,0.1v1.2h10.8v-4h-1.6l-0.2,2.5h-5.3v-5.8h4.5v-1.5
		h-4.5V9h5l0.2,2.5h1.6v-4h-10.5v1.2l1.8,0.1V22.1z M616.1,22.1l-2.5,0.1v1.2h6.9v-1.2l-2.5-0.1V9h3.5l0.2,2.5h1.6v-4h-12.5v4h1.6
		l0.2-2.5h3.5V22.1z M599.9,22.7c1.4,0.6,3,1,4.5,1c3.3,0,5.5-1.8,5.5-4.6c0-1.2-0.4-2.3-1.2-2.9c-0.7-0.6-1.2-0.8-3.6-1.7
		c-2.7-1.1-3.2-1.6-3.2-3c0-1.7,1.2-2.6,3.2-2.6c0.9,0,1.6,0.2,2.4,0.6l0.2,2.2h1.6V8.1c-1.6-0.6-2.8-0.8-4.2-0.8
		c-3.3,0-5.2,1.6-5.2,4.4c0,1.3,0.4,2.3,1.3,3c0.6,0.5,1.3,0.8,3.2,1.6c1.8,0.7,2.3,0.9,2.8,1.3c0.5,0.4,0.8,1,0.8,1.7
		c0,1.7-1.4,2.8-3.4,2.8c-0.9,0-1.9-0.2-2.8-0.6l-0.2-2.1h-1.6V22.7z M588.9,20.5c-0.8,1.2-1.8,1.8-3,1.8c-1.3,0-2.1-0.8-2.1-2.1
		c0-0.9,0.4-1.6,1.1-2c0.6-0.3,1.4-0.5,2.7-0.5c0.5,0,0.8,0,1.3,0V20.5z M589.2,23.4h3.2v-1.2l-1.7-0.1v-5.4c0-2.1-0.1-2.9-0.6-3.6
		c-0.6-1-1.9-1.6-3.6-1.6c-1.4,0-2.7,0.4-4,1.2l0.8,1.2c1.1-0.7,2-1,3-1c1.9,0,2.6,0.9,2.6,3.2v0.3c-1,0-1.4,0-1.7,0
		c-1.5,0-2.6,0.2-3.4,0.6c-1.3,0.6-1.9,1.8-1.9,3.3c0,2.2,1.4,3.5,3.7,3.5c1.4,0,2.4-0.5,3.5-1.6L589.2,23.4z M570.6,23.4h9.4v-3.6
		h-1.6l-0.2,2.2h-5.5l7-8.9v-1.4h-8.9v3.6h1.6l0.2-2.2h4.9l-7,8.9V23.4z M558.1,22.1l-1.7,0.1v1.2h5.1v-1.2l-1.7-0.1v-7
		c1.2-1.4,2.4-2.2,3.7-2.2c1,0,1.7,0.4,2,1.2c0.2,0.4,0.3,1.2,0.3,2.3v5.7l-1.7,0.1v1.2h5.1v-1.2l-1.7-0.1v-5.7c0-1.3-0.1-2.4-0.4-3
		c-0.5-1.2-1.6-1.9-3.2-1.9c-1.5,0-2.7,0.6-4.2,2.1v-2l-3.4,0.1V13l1.7,0.1V22.1z M551.9,20.5c-0.8,1.2-1.8,1.8-3,1.8
		c-1.3,0-2.1-0.8-2.1-2.1c0-0.9,0.4-1.6,1.1-2c0.6-0.3,1.4-0.5,2.7-0.5c0.5,0,0.8,0,1.3,0V20.5z M552.1,23.4h3.2v-1.2l-1.7-0.1v-5.4
		c0-2.1-0.1-2.9-0.6-3.6c-0.6-1-1.9-1.6-3.6-1.6c-1.4,0-2.7,0.4-4,1.2l0.8,1.2c1.1-0.7,2-1,3-1c1.9,0,2.6,0.9,2.6,3.2v0.3
		c-1,0-1.4,0-1.7,0c-1.5,0-2.6,0.2-3.4,0.6c-1.3,0.6-1.9,1.8-1.9,3.3c0,2.2,1.4,3.5,3.7,3.5c1.4,0,2.4-0.5,3.5-1.6L552.1,23.4z
		 M534.4,9.5c0.2-0.6,0.5-0.9,1-0.9c0.3,0,0.6,0.1,1.4,0.4c1,0.4,1.4,0.5,2,0.5c1.2,0,2-0.8,2.2-2.4h-1.2c-0.1,0.6-0.5,1-1,1
		c-0.3,0-0.6-0.1-1.3-0.3c-1-0.4-1.5-0.5-2-0.5c-1.2,0-2,0.9-2.2,2.3H534.4z M532.4,22.1l-1.7,0.1v1.2h5.1v-1.2l-1.7-0.1v-7
		c1.2-1.4,2.4-2.2,3.7-2.2c1,0,1.7,0.4,2,1.2c0.2,0.4,0.3,1.2,0.3,2.3v5.7l-1.7,0.1v1.2h5.1v-1.2l-1.7-0.1v-5.7c0-1.3-0.1-2.4-0.4-3
		c-0.5-1.2-1.6-1.9-3.2-1.9c-1.5,0-2.7,0.6-4.2,2.1v-2l-3.4,0.1V13l1.7,0.1V22.1z M521,16.7c0.1-2.3,1.3-3.7,3.1-3.7
		c1.9,0,2.9,1.3,3,3.7H521z M529,18.1c0-1.9-0.2-2.9-0.6-4c-0.7-1.7-2.1-2.6-4.2-2.6c-3.2,0-5.1,2.3-5.1,6.1s2.1,6,5.6,6
		c1.4,0,2.6-0.4,3.9-1.1l-0.7-1.4c-1.1,0.8-2.1,1.1-3.2,1.1c-1.2,0-2.2-0.4-2.9-1.3c-0.5-0.7-0.8-1.5-0.9-2.9H529z M508.7,22.8
		c1.2,0.6,2.4,0.8,3.7,0.8c2.9,0,4.5-1.3,4.5-3.5c0-0.8-0.3-1.5-0.7-1.9c-0.6-0.6-1-0.8-3-1.4c-1.2-0.3-1.7-0.5-2.1-0.7
		c-0.5-0.3-0.8-0.7-0.8-1.3c0-1.2,0.9-1.8,2.5-1.8c0.6,0,1.2,0.1,1.7,0.3l0.2,2h1.6v-3.1c-1.3-0.5-2.3-0.7-3.5-0.7
		c-2.7,0-4.3,1.3-4.3,3.4c0,1,0.4,1.8,1,2.2c0.6,0.4,1.3,0.7,2.7,1.1c1.9,0.6,1.9,0.6,2.3,0.8c0.3,0.3,0.6,0.7,0.6,1.2
		c0,1.2-1,1.9-2.6,1.9c-0.7,0-1.4-0.1-2-0.4l-0.2-2h-1.6V22.8z M495.8,22.1l-1.7,0.1v1.2h5.1v-1.2l-1.7-0.1v-7
		c1.2-1.4,2.4-2.2,3.7-2.2c1,0,1.7,0.4,2,1.2c0.2,0.4,0.3,1.2,0.3,2.3v5.7l-1.7,0.1v1.2h5.1v-1.2l-1.7-0.1v-5.7c0-1.3-0.1-2.4-0.4-3
		c-0.5-1.2-1.6-1.9-3.2-1.9c-1.5,0-2.7,0.6-4.2,2.1v-2l-3.4,0.1V13l1.7,0.1V22.1z M484.4,16.7c0.1-2.3,1.3-3.7,3.1-3.7
		c1.9,0,2.9,1.3,3,3.7H484.4z M492.4,18.1c0-1.9-0.2-2.9-0.6-4c-0.7-1.7-2.1-2.6-4.2-2.6c-3.2,0-5.1,2.3-5.1,6.1s2.1,6,5.6,6
		c1.4,0,2.6-0.4,3.9-1.1l-0.7-1.4c-1.1,0.8-2.1,1.1-3.2,1.1c-1.2,0-2.2-0.4-2.9-1.3c-0.5-0.7-0.8-1.5-0.9-2.9H492.4z M471.7,20.5
		c-0.8,1.2-1.8,1.8-3,1.8c-1.3,0-2.1-0.8-2.1-2.1c0-0.9,0.4-1.6,1.1-2c0.6-0.3,1.4-0.5,2.7-0.5c0.5,0,0.8,0,1.3,0V20.5z M471.9,23.4
		h3.2v-1.2l-1.7-0.1v-5.4c0-2.1-0.1-2.9-0.6-3.6c-0.6-1-1.9-1.6-3.6-1.6c-1.4,0-2.7,0.4-4,1.2l0.8,1.2c1.1-0.7,2-1,3-1
		c1.9,0,2.6,0.9,2.6,3.2v0.3c-1,0-1.4,0-1.7,0c-1.5,0-2.6,0.2-3.4,0.6c-1.3,0.6-1.9,1.8-1.9,3.3c0,2.2,1.4,3.5,3.7,3.5
		c1.4,0,2.4-0.5,3.5-1.6L471.9,23.4z M459.8,22.1l-1.7,0.1v1.2h5.1v-1.2l-1.7-0.1V6.5l-3.4,0.1v1.2l1.7,0.1V22.1z M447.9,20.5
		c-0.8,1.2-1.8,1.8-3,1.8c-1.3,0-2.1-0.8-2.1-2.1c0-0.9,0.4-1.6,1.1-2c0.6-0.3,1.4-0.5,2.7-0.5c0.5,0,0.8,0,1.3,0V20.5z M448.1,23.4
		h3.2v-1.2l-1.7-0.1v-5.4c0-2.1-0.1-2.9-0.6-3.6c-0.6-1-1.9-1.6-3.6-1.6c-1.4,0-2.7,0.4-4,1.2l0.8,1.2c1.1-0.7,2-1,3-1
		c1.9,0,2.6,0.9,2.6,3.2v0.3c-1,0-1.4,0-1.7,0c-1.5,0-2.6,0.2-3.4,0.6c-1.3,0.6-1.9,1.8-1.9,3.3c0,2.2,1.4,3.5,3.7,3.5
		c1.4,0,2.4-0.5,3.5-1.6L448.1,23.4z M433.8,22.1l-1.7,0.1v1.2h5.3v-1.2l-1.9-0.1v-6.3c0.7-1.8,1.7-2.7,3.2-2.7c0.3,0,0.4,0,0.7,0.1
		l0.1-1.5c-0.4-0.1-0.6-0.1-0.9-0.1c-1.4,0-2.3,0.7-3.2,2.1l0-2l-3.3,0.1V13l1.7,0.1V22.1z M427.6,20.5c-0.8,1.2-1.8,1.8-3,1.8
		c-1.3,0-2.1-0.8-2.1-2.1c0-0.9,0.4-1.6,1.1-2c0.6-0.3,1.4-0.5,2.7-0.5c0.5,0,0.8,0,1.3,0V20.5z M427.8,23.4h3.2v-1.2l-1.7-0.1v-5.4
		c0-2.1-0.1-2.9-0.6-3.6c-0.6-1-1.9-1.6-3.6-1.6c-1.4,0-2.7,0.4-4,1.2l0.8,1.2c1.1-0.7,2-1,3-1c1.9,0,2.6,0.9,2.6,3.2v0.3
		c-1,0-1.4,0-1.7,0c-1.5,0-2.6,0.2-3.4,0.6c-1.3,0.6-1.9,1.8-1.9,3.3c0,2.2,1.4,3.5,3.7,3.5c1.4,0,2.4-0.5,3.5-1.6L427.8,23.4z
		 M411,15.1c0.9-1.5,1.8-2.1,3.1-2.1c1.9,0,3.1,1.8,3.1,4.6c0,2.9-1.2,4.7-3.1,4.7c-1.2,0-2-0.6-3.1-2.2V15.1z M409.3,27.1l-1.7,0.1
		v1.2h5.3v-1.2l-1.9-0.1v-5.2c1.1,1.4,1.9,1.8,3.3,1.8c2.8,0,4.7-2.5,4.7-6.1c0-3.5-1.9-6-4.6-6c-1.4,0-2.5,0.6-3.6,2v-1.9l-3.3,0.1
		V13l1.7,0.1V27.1z M392,22.8c1.2,0.6,2.4,0.8,3.7,0.8c2.9,0,4.5-1.3,4.5-3.5c0-0.8-0.3-1.5-0.7-1.9c-0.6-0.6-1-0.8-3-1.4
		c-1.2-0.3-1.7-0.5-2.1-0.7c-0.5-0.3-0.8-0.7-0.8-1.3c0-1.2,0.9-1.8,2.5-1.8c0.6,0,1.2,0.1,1.7,0.3l0.2,2h1.6v-3.1
		c-1.3-0.5-2.3-0.7-3.5-0.7c-2.7,0-4.3,1.3-4.3,3.4c0,1,0.4,1.8,1,2.2c0.6,0.4,1.3,0.7,2.7,1.1c1.9,0.6,1.9,0.6,2.3,0.8
		c0.3,0.3,0.6,0.7,0.6,1.2c0,1.2-1,1.9-2.6,1.9c-0.7,0-1.4-0.1-2-0.4l-0.2-2H392V22.8z M384.7,12.9c2.2,0,3.5,1.8,3.5,4.7
		c0,2.8-1.4,4.6-3.5,4.6c-2.1,0-3.5-1.8-3.5-4.7C381.2,14.8,382.6,12.9,384.7,12.9 M384.7,11.5c-3.2,0-5.4,2.4-5.4,6
		c0,3.7,2.1,6.1,5.4,6.1s5.4-2.4,5.4-6C390.1,14,387.9,11.5,384.7,11.5 M373.6,13.2v6.7c0,2.8,0.8,3.8,2.9,3.8
		c0.6,0,1.1-0.1,1.9-0.4l-0.2-1.4c-0.6,0.3-0.9,0.4-1.4,0.4c-1.2,0-1.6-0.7-1.6-2.7v-6.4h2.8v-1.4h-2.8V8.8l-1.7,0.4v2.6h-1.9v1.4
		H373.6z M364.4,22.1l-1.7,0.1v1.2h5.3v-1.2l-1.9-0.1v-6.3c0.7-1.8,1.7-2.7,3.2-2.7c0.3,0,0.4,0,0.7,0.1l0.1-1.5
		c-0.4-0.1-0.6-0.1-0.9-0.1c-1.4,0-2.3,0.7-3.2,2.1l0-2l-3.3,0.1V13l1.7,0.1V22.1z M353,16.7c0.1-2.3,1.3-3.7,3.1-3.7
		c1.9,0,2.9,1.3,3,3.7H353z M361,18.1c0-1.9-0.2-2.9-0.6-4c-0.7-1.7-2.1-2.6-4.2-2.6c-3.2,0-5.1,2.3-5.1,6.1s2.1,6,5.6,6
		c1.4,0,2.6-0.4,3.9-1.1l-0.7-1.4c-1.1,0.8-2.1,1.1-3.2,1.1c-1.2,0-2.2-0.4-2.9-1.3c-0.5-0.7-0.8-1.5-0.9-2.9H361z M346.9,6.4
		c-0.7,0-1.2,0.5-1.2,1.2c0,0.8,0.5,1.3,1.2,1.3s1.2-0.5,1.2-1.2S347.6,6.4,346.9,6.4 M346,22.1l-1.7,0.1v1.2h5.1v-1.2l-1.7-0.1
		V11.6l-3.4,0.1V13l1.7,0.1V22.1z M334.6,15.1c0.7-1.4,1.8-2.2,3.1-2.2c1.9,0,3.1,1.8,3.1,4.6c0,2.9-1.2,4.7-3.1,4.7
		c-1.2,0-2.1-0.6-3.1-2.2V15.1z M332.8,22.1l-1.7,0.1v1.2h3.3v-1.8c1.2,1.5,2,2,3.5,2c2.8,0,4.7-2.5,4.7-6.1c0-3.5-1.9-6-4.6-6
		c-1.4,0-2.5,0.6-3.4,1.8V6.5l-3.4,0.1v1.2l1.7,0.1V22.1z M324,16.3h-4.8l1.4-4.2c0.4-1.1,0.5-1.4,0.6-1.7c0.1-0.3,0.2-0.6,0.4-1.4
		c0.3,1.1,0.5,1.8,1,3.1L324,16.3z M324.6,17.9l1.5,4.3l-2,0.1v1.2h5.6v-1.2l-1.6-0.1l-5.2-14.6h-2.3l-5.2,14.6l-1.6,0.1v1.2h5.5
		v-1.2l-2-0.1l1.5-4.3H324.6z M299.5,22.8c1.2,0.6,2.4,0.8,3.7,0.8c2.9,0,4.5-1.3,4.5-3.5c0-0.8-0.3-1.5-0.7-1.9
		c-0.6-0.6-1-0.8-3-1.4c-1.2-0.3-1.7-0.5-2.1-0.7c-0.5-0.3-0.8-0.7-0.8-1.3c0-1.2,0.9-1.8,2.5-1.8c0.6,0,1.1,0.1,1.7,0.3l0.2,2h1.6
		v-3.1c-1.3-0.5-2.3-0.7-3.5-0.7c-2.7,0-4.3,1.3-4.3,3.4c0,1,0.4,1.8,1,2.2c0.6,0.4,1.3,0.7,2.7,1.1c1.9,0.6,1.9,0.6,2.3,0.8
		c0.3,0.3,0.6,0.7,0.6,1.2c0,1.2-1,1.9-2.6,1.9c-0.7,0-1.4-0.1-2-0.4l-0.2-2h-1.6V22.8z M292.2,12.9c2.2,0,3.5,1.8,3.5,4.7
		c0,2.8-1.4,4.6-3.5,4.6c-2.1,0-3.5-1.8-3.5-4.7C288.7,14.8,290.1,12.9,292.2,12.9 M292.2,11.5c-3.2,0-5.4,2.4-5.4,6
		c0,3.7,2.1,6.1,5.4,6.1s5.4-2.4,5.4-6C297.6,14,295.4,11.5,292.2,11.5 M279.3,23.4h2.2l3.7-10.3l1.3-0.1v-1.2h-4.8V13l1.9,0.1
		l-2.3,6.6c-0.3,0.8-0.5,1.5-0.7,2.1c-0.3-1.1-0.4-1.2-0.7-2.2l-2.4-6.6l1.9-0.1v-1.2h-5V13l1.3,0.1L279.3,23.4z M271.4,6.4
		c-0.7,0-1.2,0.5-1.2,1.2c0,0.8,0.5,1.3,1.2,1.3s1.2-0.5,1.2-1.2S272.2,6.4,271.4,6.4 M270.6,22.1l-1.7,0.1v1.2h5.1v-1.2l-1.7-0.1
		V11.6l-3.4,0.1V13l1.7,0.1V22.1z M262.3,13.2v6.7c0,2.8,0.8,3.8,2.9,3.8c0.6,0,1.1-0.1,1.9-0.4l-0.2-1.4c-0.6,0.3-0.9,0.4-1.4,0.4
		c-1.2,0-1.6-0.7-1.6-2.7v-6.4h2.8v-1.4H264V8.8l-1.7,0.4v2.6h-1.9v1.4H262.3z M256.3,20.5c-0.8,1.2-1.8,1.8-3,1.8
		c-1.3,0-2.1-0.8-2.1-2.1c0-0.9,0.4-1.6,1.1-2c0.6-0.3,1.4-0.5,2.7-0.5c0.5,0,0.8,0,1.3,0V20.5z M256.5,23.4h3.2v-1.2l-1.7-0.1v-5.4
		c0-2.1-0.1-2.9-0.6-3.6c-0.6-1-1.9-1.6-3.6-1.6c-1.4,0-2.7,0.4-4,1.2l0.8,1.2c1.1-0.7,2-1,3-1c1.9,0,2.6,0.9,2.6,3.2v0.3
		c-1,0-1.4,0-1.7,0c-1.5,0-2.6,0.2-3.4,0.6c-1.3,0.6-1.9,1.8-1.9,3.3c0,2.2,1.4,3.5,3.7,3.5c1.4,0,2.4-0.5,3.5-1.6L256.5,23.4z
		 M247.3,12.1c-1.1-0.4-2.2-0.6-3.4-0.6c-1.7,0-2.8,0.4-3.8,1.4c-1,1.1-1.6,2.7-1.6,4.7c0,3.7,2,6,5.5,6c1.4,0,2.5-0.3,3.7-1.1
		l-0.7-1.4c-1,0.7-1.9,1-3,1c-2.3,0-3.6-1.8-3.6-4.8c0-2.9,1.2-4.6,3.4-4.6c0.6,0,1.1,0.1,1.7,0.3l0.2,2.1h1.6V12.1z M234.1,23.4
		h3.3v-1.2l-1.7-0.1V11.6l-3.4,0.1V13l1.7,0.1v7.2c-1.2,1.3-2.4,2-3.6,2c-0.9,0-1.6-0.4-1.9-1.2c-0.2-0.4-0.3-1.2-0.3-2.3v-7.1
		l-3.4,0.1V13l1.7,0.1v5.6c0,1.5,0.1,2.5,0.4,3.1c0.5,1.2,1.6,1.9,3.1,1.9c1.5,0,2.7-0.6,4.2-2V23.4z M220.1,20.1
		c-1,1.6-1.9,2.2-3.1,2.2c-1.9,0-3.1-1.8-3.1-4.7c0-2.9,1.2-4.6,3.1-4.6c1.3,0,2.3,0.7,3.1,2.2V20.1z M220.3,23.4h3.3v-1.2l-1.7-0.1
		V6.5l-3.4,0.1v1.2l1.7,0.1v5.5c-0.9-1.2-2-1.8-3.4-1.8c-2.7,0-4.6,2.5-4.6,6c0,3.7,1.9,6.1,4.7,6.1c1.5,0,2.3-0.5,3.5-2V23.4z
		 M201.1,22.1l-1.8,0.1v1.2h10.8v-4h-1.6l-0.2,2.5h-5.3v-5.8h4.5v-1.5h-4.5V9h5l0.2,2.5h1.6v-4h-10.5v1.2l1.8,0.1V22.1z M183.6,22.8
		c1.2,0.6,2.4,0.8,3.7,0.8c2.9,0,4.5-1.3,4.5-3.5c0-0.8-0.3-1.5-0.7-1.9c-0.6-0.6-1-0.8-3-1.4c-1.2-0.3-1.7-0.5-2.1-0.7
		c-0.5-0.3-0.8-0.7-0.8-1.3c0-1.2,0.9-1.8,2.5-1.8c0.6,0,1.1,0.1,1.7,0.3l0.2,2h1.6v-3.1c-1.3-0.5-2.3-0.7-3.5-0.7
		c-2.7,0-4.3,1.3-4.3,3.4c0,1,0.4,1.8,1,2.2c0.6,0.4,1.3,0.7,2.7,1.1c1.9,0.6,1.9,0.6,2.3,0.8c0.3,0.3,0.6,0.7,0.6,1.2
		c0,1.2-1,1.9-2.6,1.9c-0.7,0-1.4-0.1-2-0.4l-0.2-2h-1.6V22.8z M176.4,12.9c2.2,0,3.5,1.8,3.5,4.7c0,2.8-1.4,4.6-3.5,4.6
		c-2.1,0-3.5-1.8-3.5-4.7C172.9,14.8,174.3,12.9,176.4,12.9 M176.4,11.5c-3.2,0-5.4,2.4-5.4,6c0,3.7,2.1,6.1,5.4,6.1
		c3.2,0,5.4-2.4,5.4-6C181.8,14,179.6,11.5,176.4,11.5 M161.1,22.8c1.2,0.6,2.4,0.8,3.7,0.8c2.9,0,4.5-1.3,4.5-3.5
		c0-0.8-0.3-1.5-0.7-1.9c-0.6-0.6-1-0.8-3-1.4c-1.2-0.3-1.7-0.5-2.1-0.7c-0.5-0.3-0.8-0.7-0.8-1.3c0-1.2,0.9-1.8,2.5-1.8
		c0.6,0,1.2,0.1,1.7,0.3l0.2,2h1.6v-3.1c-1.3-0.5-2.3-0.7-3.5-0.7c-2.7,0-4.3,1.3-4.3,3.4c0,1,0.4,1.8,1,2.2
		c0.6,0.4,1.3,0.7,2.7,1.1c1.9,0.6,1.9,0.6,2.3,0.8c0.3,0.3,0.6,0.7,0.6,1.2c0,1.2-1,1.9-2.6,1.9c-0.7,0-1.4-0.1-2-0.4l-0.2-2h-1.6
		V22.8z M153.7,22.1l-1.7,0.1v1.2h5.3v-1.2l-1.9-0.1v-6.3c0.7-1.8,1.7-2.7,3.2-2.7c0.3,0,0.4,0,0.7,0.1l0.1-1.5
		c-0.4-0.1-0.6-0.1-0.9-0.1c-1.4,0-2.3,0.7-3.2,2.1l0-2l-3.3,0.1V13l1.7,0.1V22.1z M147.1,23.4h3.3v-1.2l-1.7-0.1V11.6l-3.4,0.1V13
		l1.7,0.1v7.2c-1.2,1.3-2.4,2-3.6,2c-0.9,0-1.6-0.4-1.9-1.2c-0.2-0.4-0.3-1.2-0.3-2.3v-7.1l-3.4,0.1V13l1.7,0.1v5.6
		c0,1.5,0.1,2.5,0.4,3.1c0.5,1.2,1.6,1.9,3.1,1.9c1.5,0,2.7-0.6,4.2-2V23.4z M135.7,12.1c-1.1-0.4-2.2-0.6-3.4-0.6
		c-1.7,0-2.8,0.4-3.8,1.4c-1,1.1-1.6,2.7-1.6,4.7c0,3.7,2,6,5.5,6c1.4,0,2.5-0.3,3.7-1.1l-0.7-1.4c-1,0.7-1.9,1-3,1
		c-2.3,0-3.6-1.8-3.6-4.8c0-2.9,1.2-4.6,3.4-4.6c0.6,0,1.1,0.1,1.7,0.3l0.2,2.1h1.6V12.1z M116.2,16.7c0.1-2.3,1.3-3.7,3.1-3.7
		c1.9,0,2.9,1.3,3,3.7H116.2z M124.2,18.1c0-1.9-0.2-2.9-0.6-4c-0.7-1.7-2.1-2.6-4.2-2.6c-3.2,0-5.1,2.3-5.1,6.1s2.1,6,5.6,6
		c1.4,0,2.6-0.4,3.9-1.1l-0.7-1.4c-1.1,0.8-2.1,1.1-3.2,1.1c-1.2,0-2.2-0.4-2.9-1.3c-0.5-0.7-0.8-1.5-0.9-2.9H124.2z M104.4,14.8V9
		h1.1c1.3,0,2.2,0.1,2.8,0.4c0.8,0.4,1.3,1.3,1.3,2.4c0,1.2-0.5,2.1-1.5,2.5c-0.7,0.3-1.5,0.5-2.9,0.5H104.4z M102.6,22.1l-1.8,0.1
		v1.2h5.5v-1.2l-1.8-0.1v-5.8h0.6c2.4,0,2.8,0.3,4,3.1l1.7,4h3v-1.2l-1.6-0.1l-1.4-3.5c-0.9-2.2-1.2-2.5-2.4-2.9
		c2.2-0.5,3.4-1.9,3.4-4c0-1.5-0.7-2.8-1.9-3.5c-0.9-0.5-2-0.7-3.7-0.7h-5.2v1.2l1.8,0.1V22.1z"/>
	<path class="st2" d="M91.5,0.5"/>
</g>
<g>
	<g>
		<defs>
			<rect id="SVGID_1_" x="91.3" y="0.6" width="0.9" height="27.7"/>
		</defs>
		<clipPath id="SVGID_00000173160333136048015410000006159352204279098522_">
			<use xlink:href="#SVGID_1_"  style="overflow:visible;"/>
		</clipPath>
		
			<rect x="91.3" y="0.6" style="clip-path:url(#SVGID_00000173160333136048015410000006159352204279098522_);fill:none;stroke:#979797;stroke-width:2;stroke-miterlimit:10;" width="0.9" height="27.7"/>
	</g>
</g>
</svg>
